<?xml version="1.0" standalone="no"?>
<!DOCTYPE svg PUBLIC "-//W3C//DTD SVG 1.1//EN" "http://www.w3.org/Graphics/SVG/1.1/DTD/svg11.dtd" >
<svg xmlns="http://www.w3.org/2000/svg">
<metadata>
This is a custom SVG webfont generated by Font Squirrel.
Copyright   : Design and data by The Monotype Corporation  1993 Microsoft Corporation All rights reserved
</metadata>
<defs>
<font id="NewsGothicMTItalic" horiz-adv-x="1110" >
<font-face units-per-em="2048" ascent="1638" descent="-410" />
<missing-glyph horiz-adv-x="512" />
<glyph unicode=" "  horiz-adv-x="512" />
<glyph unicode="&#x09;" horiz-adv-x="512" />
<glyph unicode="&#xa0;" horiz-adv-x="512" />
<glyph unicode="!" horiz-adv-x="748" d="M192 0l44 227h202l-44 -227h-202zM328 463l155 1053h209l-253 -1053h-111z" />
<glyph unicode="&#x22;" horiz-adv-x="575" d="M138 1036l28 272l51 237h148l-50 -237l-88 -272h-89zM404 1036l27 272l50 237h152l-51 -237l-89 -272h-89z" />
<glyph unicode="#" horiz-adv-x="1366" d="M88 356v123h224l77 371h-301v122h326l86 405h122l-87 -405h422l85 405h122l-86 -405h198v-122h-222l-77 -371h299v-123h-323l-84 -402h-124l86 402h-424l-82 -402h-124l85 402h-198zM433 481h423l77 369h-422z" />
<glyph unicode="$" horiz-adv-x="1280" d="M73 365l127 43q40 -121 102 -189t169 -110l121 631q-185 111 -252.5 202.5t-67.5 200.5q0 92 43 172t119 128t165 65q41 8 145 8l8 47h114l-8 -57q116 -31 196.5 -100t147.5 -203l-117 -43q-49 102 -106 151.5t-149 75.5l-109 -567q219 -149 283.5 -242.5t64.5 -213.5 q0 -153 -107.5 -272.5t-364.5 -119.5h-41l-48 -249h-112l51 267q-133 42 -224 131.5t-150 243.5zM401 1158q0 -71 44 -132.5t175 -144.5l101 523h-33q-133 0 -210 -71.5t-77 -174.5zM579 86q36 -3 62 -3q129 0 211 79.5t82 197.5q0 91 -51.5 164t-188.5 158z" />
<glyph unicode="%" horiz-adv-x="1921" d="M108 898q0 127 60 260t151 190t194 57q79 0 150 -36.5t134 -109.5q262 50 399.5 105t268.5 152h117l-1115 -1947h-120l1010 1752q-98 -41 -200.5 -71t-317.5 -76q25 -55 25 -117q0 -198 -126.5 -361.5t-292.5 -163.5q-145 0 -241 100t-96 266zM226 899q0 -112 64 -180.5 t151 -68.5q120 0 213 133t93 261q0 103 -70 173t-170 70q-130 0 -205.5 -125.5t-75.5 -262.5zM1069 40q0 167 92 315q116 186 306 186q150 0 252.5 -101t102.5 -242q0 -185 -123 -356t-293 -171q-145 0 -241 101t-96 268zM1187 41q0 -118 62.5 -186.5t150.5 -68.5 q52 0 97.5 24t91.5 78.5t77 124.5q41 95 41 169q0 100 -69.5 171.5t-166.5 71.5q-127 0 -205.5 -126t-78.5 -258z" />
<glyph unicode="&#x26;" horiz-adv-x="1386" d="M69 418q0 132 59.5 238t168.5 181q65 46 191 90q-62 123 -62 242q0 170 98 273t239 103q130 0 215 -85.5t85 -220.5q0 -98 -45 -172t-140 -133q-66 -40 -199 -82q152 -277 346 -525q117 136 167 289l118 -41q-82 -209 -208 -347q84 -102 208 -228h-165l-132 141 q-114 -90 -220 -130.5t-240 -40.5q-222 0 -353 125.5t-131 322.5zM210 431q0 -151 96.5 -244t265.5 -93q97 0 181.5 33t180.5 109q-174 208 -392 578q-143 -47 -220 -119q-112 -106 -112 -264zM558 1185q0 -93 60 -220q183 51 249 121t66 158q0 79 -51 130t-128 51 q-82 0 -139 -64t-57 -176z" />
<glyph unicode="'" horiz-adv-x="449" d="M210 1039l26 267l51 239h148l-51 -239l-83 -267h-91z" />
<glyph unicode="(" horiz-adv-x="748" d="M59 321q0 233 92.5 465t270.5 449q118 143 325 314l75 -89q-191 -160 -301 -296q-150 -188 -238.5 -404t-88.5 -430q0 -197 67 -353.5t213 -316.5l-78 -91q-119 132 -178 228q-81 130 -120 266t-39 258z" />
<glyph unicode=")" horiz-adv-x="748" d="M-75 -340q329 268 479.5 565.5t150.5 570.5q0 190 -65 343.5t-216 322.5l77 85q338 -355 338 -755q0 -244 -98.5 -478t-280.5 -451q-119 -141 -309 -294z" />
<glyph unicode="*" horiz-adv-x="961" d="M158 1044v144l386 -51l-236 314l129 73l148 -362l153 362l127 -73l-237 -314l388 51v-144l-388 46l237 -312l-127 -73l-153 358l-148 -358l-129 73l236 312z" />
<glyph unicode="+" horiz-adv-x="1366" d="M138 596v131h477v480h131v-480h481v-131h-481v-475h-131v475h-477z" />
<glyph unicode="," horiz-adv-x="641" d="M62 -259l143 273l-88 -14l45 230h201l-47 -230l-186 -300z" />
<glyph unicode="-" horiz-adv-x="641" d="M137 464l29 147h339l-29 -147h-339z" />
<glyph unicode="." horiz-adv-x="641" d="M117 0l43 228h202l-44 -228h-201z" />
<glyph unicode="/" horiz-adv-x="1087" d="M105 0l729 1516h148l-741 -1516h-136z" />
<glyph unicode="0" horiz-adv-x="1280" d="M115 494q0 213 81 495t220.5 419t329.5 137q196 0 309 -124.5t113 -394.5q0 -205 -51 -411.5t-134 -352.5q-61 -107 -128 -167.5t-149.5 -92.5t-160.5 -32q-127 0 -224.5 56t-151.5 177.5t-54 290.5zM256 471q0 -204 76 -294t192 -90q127 0 217 78q124 108 206 363.5 t82 517.5q0 211 -76 300.5t-204 89.5q-133 0 -227 -102q-125 -135 -201 -409q-65 -236 -65 -454z" />
<glyph unicode="1" horiz-adv-x="1280" d="M241 0l21 111h233l241 1220q-162 -90 -322 -94l23 115q135 23 218.5 59.5t166.5 104.5h89l-276 -1405h239l-22 -111h-611z" />
<glyph unicode="2" horiz-adv-x="1280" d="M29 0q3 92 46 176q58 114 180 226q87 79 289 208.5t289.5 207.5t132 161t44.5 169q0 125 -77.5 203t-198.5 78t-217.5 -80.5t-145.5 -251.5l-123 32q45 131 91 198q72 105 177 161.5t238 56.5q178 0 287.5 -110.5t109.5 -288.5q0 -83 -27 -160.5t-82.5 -146.5 t-124.5 -123q-94 -74 -262 -177q-248 -153 -335 -238t-136 -185h818l-22 -116h-951z" />
<glyph unicode="3" horiz-adv-x="1280" d="M83 363l112 44q72 -179 163 -249.5t205 -70.5q152 0 252 99t100 246q0 145 -118 227q-84 58 -261 58q-30 0 -94 -2l24 122q36 -1 60 -1q243 0 338.5 101.5t95.5 235.5q0 117 -71.5 186t-199.5 69q-131 0 -217 -81q-56 -52 -93 -154l-109 42q46 130 128 202 q122 108 301 108q189 0 294 -107t105 -257q0 -100 -45.5 -190t-130.5 -147q-64 -43 -171 -65q133 -32 203 -96q104 -94 104 -247q0 -176 -103 -302q-135 -164 -381 -164q-169 0 -295.5 98t-195.5 295z" />
<glyph unicode="4" horiz-adv-x="1280" d="M30 377l21 118l827 1021h197l-197 -1021h249l-25 -118h-249l-76 -377h-134l76 377h-689zM202 495h540l128 647l55 266q-41 -67 -144 -194z" />
<glyph unicode="5" horiz-adv-x="1280" d="M89 300l109 46q59 -136 147 -197.5t185 -61.5q91 0 178 53.5t140 166t53 232.5q0 146 -85.5 235.5t-212.5 89.5q-161 0 -290 -157l-106 45l190 764h740l-22 -111h-626l-132 -533q116 107 271 107q174 0 293.5 -122.5t119.5 -310.5q0 -152 -70 -291.5t-188 -212 t-255 -72.5q-148 0 -252.5 79t-186.5 251z" />
<glyph unicode="6" horiz-adv-x="1280" d="M155 514q0 239 86 515q54 175 124.5 278.5t183.5 170.5t272 67q133 0 224 -49t167 -154l-96 -76q-102 171 -303 171q-166 0 -279 -121q-148 -159 -201 -496q88 71 178 106.5t181 35.5q145 0 254 -84q144 -111 144 -345q0 -207 -105 -363q-134 -200 -367 -200 q-142 0 -250 72t-160.5 204.5t-52.5 267.5zM286 517q0 -214 96 -324t234 -110q129 0 231 121.5t102 332.5q0 153 -74.5 230t-209.5 77q-90 0 -180.5 -39t-182.5 -117q-16 -102 -16 -171z" />
<glyph unicode="7" horiz-adv-x="1280" d="M215 0l866 1400h-768l25 116h899l-21 -116l-846 -1400h-155z" />
<glyph unicode="8" horiz-adv-x="1280" d="M88 385q0 166 129 282q95 86 269 139q-126 77 -181.5 158.5t-55.5 187.5q0 161 127.5 277t342.5 116q202 0 318 -105t116 -252q0 -120 -81.5 -219t-297.5 -178q181 -103 250 -195.5t69 -207.5q0 -168 -136.5 -293t-366.5 -125q-235 0 -368.5 121t-133.5 294zM229 396 q0 -147 105 -227t253 -80q170 0 270.5 88t100.5 209q0 98 -69 176.5t-283 179.5q-143 -37 -220.5 -81.5t-117 -112t-39.5 -152.5zM382 1164q0 -196 268 -314q218 75 291.5 157.5t73.5 180.5q0 105 -80.5 175.5t-228.5 70.5q-149 0 -236.5 -79t-87.5 -191z" />
<glyph unicode="9" horiz-adv-x="1280" d="M85 179l97 78q106 -171 300 -171q202 0 328 177q103 145 153 442q-91 -71 -181.5 -107t-181.5 -36q-174 0 -284 113.5t-110 308.5q0 251 149 420q125 141 311 141q154 0 256.5 -64t160.5 -197t58 -286q0 -240 -85 -514q-54 -175 -129.5 -284.5t-188 -169.5t-260.5 -60 q-137 0 -229 52t-164 157zM348 985q0 -152 72 -228.5t204 -76.5q99 0 192 39t179 116q15 105 15 175q0 214 -94.5 321.5t-234.5 107.5q-129 0 -231 -120.5t-102 -333.5z" />
<glyph unicode=":" horiz-adv-x="641" d="M117 0l44 228h203l-39 -228h-208zM281 850l44 225h201l-43 -225h-202z" />
<glyph unicode=";" horiz-adv-x="641" d="M62 -259l141 271l-87 -12l44 232h201l-45 -232l-186 -299zM283 854l43 221h200l-41 -221h-202z" />
<glyph unicode="&#x3c;" horiz-adv-x="1366" d="M140 604v119l1085 456v-142l-909 -373l909 -375v-142z" />
<glyph unicode="=" horiz-adv-x="1366" d="M140 366v131h1086v-131h-1086zM140 834v132h1086v-132h-1086z" />
<glyph unicode="&#x3e;" horiz-adv-x="1366" d="M140 147v142l909 373l-909 375v142l1085 -458v-118z" />
<glyph unicode="?" horiz-adv-x="961" d="M137 0l44 227h203l-45 -227h-202zM261 1289q40 109 99 166q95 90 240 90q148 0 235 -86t87 -224q0 -101 -57 -195t-203 -211q-106 -86 -145.5 -138t-59.5 -111q-14 -39 -21 -119h-133q6 100 33 170.5t89 144.5q41 50 190 186q77 71 97 95q28 36 45.5 80.5t17.5 91.5 q0 89 -54.5 143t-142.5 54q-69 0 -119.5 -38.5t-85.5 -134.5z" />
<glyph unicode="@" horiz-adv-x="2068" d="M111 521q0 244 100 465q122 271 346.5 415t544.5 144q395 0 624.5 -232t229.5 -547q0 -291 -193 -504t-409 -213q-69 0 -111.5 20.5t-62.5 59.5q-13 26 -19 87q-65 -76 -145.5 -121.5t-161.5 -45.5q-89 0 -173 52.5t-136.5 160t-52.5 236.5q0 160 81.5 319t202.5 239 t235 80q87 0 166 -45.5t136 -138.5l34 156h179l-144 -672q-30 -139 -30 -155q0 -27 20.5 -46.5t49.5 -19.5q53 0 139 61q114 80 180.5 214.5t66.5 278.5q0 166 -85.5 311t-255 232.5t-374.5 87.5q-234 0 -427.5 -110t-300 -314t-106.5 -439q0 -244 106.5 -421t308 -261.5 t446.5 -84.5q262 0 439 87.5t265 214.5h181q-51 -105 -175 -214.5t-295 -172.5t-412 -63q-222 0 -409.5 57t-319.5 171.5t-199 263.5q-84 188 -84 407zM677 487q0 -137 65 -213t149 -76q56 0 118 33t118.5 99t92.5 168t36 203q0 137 -67.5 212t-164.5 75q-90 0 -172.5 -71.5 t-128.5 -200t-46 -229.5z" />
<glyph unicode="A" horiz-adv-x="1323" d="M2 0l758 1516h209l242 -1516h-143l-72 458h-622l-225 -458h-147zM435 584h542l-131 842z" />
<glyph unicode="B" horiz-adv-x="1323" d="M150 0l289 1516h539q162 0 255 -94.5t93 -267.5q0 -125 -45 -206t-130 -127q-60 -32 -173 -52q82 -28 124 -60q60 -45 91 -113.5t31 -153.5q0 -107 -41 -194.5t-105 -142t-152 -84.5q-63 -21 -158 -21h-618zM324 121h367q113 0 197 43.5t128 119.5t44 154 q0 115 -96.5 200t-251.5 85h-273zM464 844h302q98 0 200.5 34.5t153 107t50.5 171.5q0 112 -59.5 175.5t-162.5 63.5h-379z" />
<glyph unicode="C" horiz-adv-x="1430" d="M204 614q0 247 103.5 483t268 342t339.5 106q189 0 324 -113.5t171 -309.5l-138 -34q-29 165 -126.5 251t-237.5 86q-264 0 -417 -272q-120 -213 -120 -533q0 -272 107 -399t266 -127q238 0 410 266l118 -53q-101 -162 -236 -249.5t-305 -87.5q-230 0 -378.5 165 t-148.5 479z" />
<glyph unicode="D" horiz-adv-x="1450" d="M176 0l294 1516h464q223 0 354 -149.5t131 -470.5q0 -393 -199 -644.5t-580 -251.5h-464zM349 123h184q268 0 412 76t227.5 262t83.5 448q0 260 -103 373.5t-310 113.5h-247z" />
<glyph unicode="E" horiz-adv-x="1194" d="M163 0l295 1516h857l-23 -120h-709l-104 -539h574l-23 -121h-572l-122 -615h764l-23 -121h-914z" />
<glyph unicode="F" horiz-adv-x="1087" d="M162 0l294 1516h785l-23 -119h-638l-110 -574h548l-21 -120h-550l-135 -703h-150z" />
<glyph unicode="G" horiz-adv-x="1386" d="M167 627q0 225 81 456.5t239 346.5t361 115q158 0 272.5 -56.5t181.5 -168.5q45 -76 70 -210l-143 -35q-14 105 -48 167q-49 87 -133 134.5t-190 47.5q-156 0 -277.5 -95.5t-185.5 -295t-64 -412.5q0 -264 115 -396.5t284 -132.5q127 0 227 59.5t163 156.5l27 40l4 9 l49 264h-425l23 121h574l-143 -742h-126l32 176q-85 -102 -185.5 -154t-240.5 -52q-231 0 -386.5 173.5t-155.5 483.5z" />
<glyph unicode="H" horiz-adv-x="1516" d="M160 0l294 1516h151l-132 -675h793l131 675h148l-289 -1516h-151l139 717h-790l-142 -717h-152z" />
<glyph unicode="I" horiz-adv-x="618" d="M181 0l291 1516h148l-290 -1516h-149z" />
<glyph unicode="J" horiz-adv-x="854" d="M-33 324l127 29q3 -137 54 -199t127 -62q81 0 136 53q75 73 99 197l226 1174h147l-217 -1133q-29 -153 -68 -231t-120.5 -130t-197.5 -52q-142 0 -228 91q-85 90 -85 255v8z" />
<glyph unicode="K" horiz-adv-x="1280" d="M146 0l293 1516h149l-149 -762q62 68 125.5 128.5t241.5 215.5l469 418h187l-696 -620l416 -896h-153l-372 800l-250 -226l-111 -574h-150z" />
<glyph unicode="L" d="M164 0l291 1516h148l-267 -1395h724l-23 -121h-873z" />
<glyph unicode="M" horiz-adv-x="1729" d="M155 0l294 1516h224l136 -909l31 -200q9 -67 17 -140l198 381l465 868h236l-288 -1516h-133l270 1412l-758 -1412h-71l-213 1412l-275 -1412h-133z" />
<glyph unicode="N" horiz-adv-x="1536" d="M151 0l298 1516h208l541 -1225l235 1225h140l-291 -1516h-98l-619 1397l-272 -1397h-142z" />
<glyph unicode="O" horiz-adv-x="1516" d="M217 593q0 222 93 448q108 262 275 383t362 121q243 0 391.5 -158.5t148.5 -451.5q0 -240 -107.5 -490t-271.5 -362.5t-342 -112.5q-253 0 -401 159.5t-148 463.5zM370 522q0 -135 50.5 -234t139 -146.5t187.5 -47.5q107 0 202 54t173.5 156.5t134.5 265.5q74 215 74 424 q0 202 -106.5 315t-269.5 113q-105 0 -200.5 -54t-176 -159t-137.5 -278q-71 -213 -71 -409z" />
<glyph unicode="P" horiz-adv-x="1323" d="M149 0l292 1516h535q179 0 286 -104.5t107 -266.5q0 -132 -67 -243.5t-190.5 -164.5t-234.5 -53h-449l-132 -684h-147zM451 805h371q220 0 310.5 103.5t90.5 234.5q0 114 -75 182.5t-222 68.5h-360z" />
<glyph unicode="Q" horiz-adv-x="1516" d="M217 593q0 218 91 442q107 265 273.5 387.5t365.5 122.5q167 0 289.5 -75t186.5 -216t64 -304q0 -174 -50 -342t-120.5 -285t-153.5 -193.5t-194 -118.5q-75 -29 -176 -35l-28 -105q-7 -31 -7 -52q0 -43 30.5 -66t125.5 -23q58 0 227 11l-23 -119l-67 -4q-94 -5 -136 -5 q-171 0 -227.5 43t-56.5 120q0 63 33 200q-140 26 -235.5 94t-153.5 206t-58 317zM370 522q0 -136 51 -234.5t140 -146.5t186 -48q105 0 200.5 54.5t175 159t136.5 274.5q72 213 72 415q0 200 -107.5 314t-268.5 114q-106 0 -201 -54t-175.5 -159.5t-137.5 -278.5 q-71 -213 -71 -410z" />
<glyph unicode="R" horiz-adv-x="1343" d="M156 0l298 1516h484q190 0 294 -68q153 -102 153 -299q0 -173 -100 -297.5t-347 -154.5l249 -697h-148l-245 697h-353l-135 -697h-150zM465 817h403q103 0 191.5 38t135.5 119t47 169q0 111 -75 181t-213 70h-375z" />
<glyph unicode="S" horiz-adv-x="1174" d="M103 458l127 25q15 -133 47 -201q44 -96 125.5 -142t204.5 -46q176 0 265.5 80t89.5 203q0 94 -49 158q-49 63 -234.5 160.5t-264.5 173.5q-110 115 -110 264q0 179 125.5 295.5t351.5 116.5q142 0 240 -51t160 -150q42 -67 71 -187l-127 -34q-21 92 -51 142 q-46 79 -122 119.5t-185 40.5q-154 0 -239 -77t-85 -194q0 -92 54 -158q54 -67 256 -174q151 -80 215.5 -132.5t101.5 -127.5t37 -176q0 -180 -131.5 -298t-367.5 -118q-224 0 -356 124.5t-149 363.5z" />
<glyph unicode="T" horiz-adv-x="1153" d="M248 1394l23 122h1098l-24 -122h-473l-270 -1394h-148l269 1394h-475z" />
<glyph unicode="U" horiz-adv-x="1493" d="M245 404q0 91 22 206l175 906h148l-168 -872q-26 -135 -26 -240q0 -134 88 -217.5t249 -83.5q226 0 348 141q78 90 116 296l184 976h149l-200 -1049q-47 -247 -197 -372t-398 -125q-130 0 -226 33q-67 23 -129 79.5t-98.5 131.5t-36.5 190z" />
<glyph unicode="V" horiz-adv-x="1343" d="M348 1516h142l134 -1298l709 1298h149l-826 -1516h-138z" />
<glyph unicode="W" horiz-adv-x="1729" d="M294 0v1516h138v-1067q0 -13 -2 -40l-10 -154q58 142 98 223l509 1038h147l-21 -895l-3 -145l-8 -221q59 145 134 291l504 970h155l-782 -1516h-137l11 820q4 242 9 298l13 165q-16 -27 -126 -279l-30 -60l-461 -944h-138z" />
<glyph unicode="X" horiz-adv-x="1217" d="M4 0l644 788l-285 728h145l140 -362l65 -165q15 -40 31 -90l210 272l282 345h170l-605 -745l300 -771h-147l-172 437q-41 104 -82 222q-57 -85 -125 -165l-400 -494h-171z" />
<glyph unicode="Y" horiz-adv-x="1194" d="M301 1516h149l219 -744l496 744h167l-613 -903l-118 -613h-151l124 636z" />
<glyph unicode="Z" horiz-adv-x="1194" d="M15 0l25 129l1089 1265h-771l25 122h957l-20 -102l-1112 -1293h877l-25 -121h-1045z" />
<glyph unicode="[" horiz-adv-x="748" d="M158 -407l368 1923h320l-19 -88h-180l-334 -1743h182l-19 -92h-318z" />
<glyph unicode="\" horiz-adv-x="1087" d="M110 1516h136l732 -1516h-136z" />
<glyph unicode="]" horiz-adv-x="748" d="M20 -409l18 92h183l333 1744h-185l17 89h322l-368 -1925h-320z" />
<glyph unicode="^" horiz-adv-x="1343" d="M224 1007l447 538l448 -538l-65 -53l-383 461l-384 -461z" />
<glyph unicode="_" horiz-adv-x="1131" d="M-40 -277h1193v-130h-1193v130z" />
<glyph unicode="`" horiz-adv-x="682" d="M188 1497h262l267 -311h-123z" />
<glyph unicode="a" d="M92 283q0 146 116 235q158 121 460 121h149q22 75 22 120q0 100 -69.5 166.5t-180.5 66.5q-64 0 -121 -27t-124 -93l-87 75q77 80 154.5 115t184.5 35q178 0 277.5 -93t99.5 -228q0 -82 -50 -290q-40 -170 -56 -270t-24 -216h-126v127q-104 -85 -177 -117t-147 -32 q-126 0 -213.5 88t-87.5 217zM230 293q0 -86 55 -142.5t133 -56.5q70 0 150 35.5t171 106.5q18 142 52 293h-103q-266 0 -362 -69t-96 -167z" />
<glyph unicode="b" horiz-adv-x="1174" d="M94 0q17 40 31 92q8 32 32 159l243 1265h137l-109 -574q67 79 152 117t167 38q85 0 163.5 -38.5t132.5 -135t54 -266.5q0 -323 -162 -520q-131 -159 -320 -159q-191 0 -348 172l-47 -150h-126zM298 262q80 -96 146.5 -134t146.5 -38q111 0 196.5 76.5t131.5 218t46 287.5 q0 162 -70.5 241t-183.5 79q-177 0 -311 -190z" />
<glyph unicode="c" horiz-adv-x="1087" d="M119 457q0 169 74.5 326.5t189.5 235.5t238 78q158 0 266 -104q76 -73 115 -204l-117 -26q-25 109 -96.5 168.5t-160.5 59.5q-84 0 -173.5 -60.5t-145.5 -197.5t-56 -287q0 -171 82.5 -261t214.5 -90q198 0 294 218l106 -49q-64 -134 -165.5 -210t-250.5 -76 q-177 0 -296 129t-119 350z" />
<glyph unicode="d" horiz-adv-x="1153" d="M133 444q0 309 159 495q136 158 333 158q84 0 157.5 -31t174.5 -115l108 565h138l-290 -1516h-107l27 159q-84 -96 -164.5 -138.5t-179.5 -42.5q-147 0 -251.5 119.5t-104.5 346.5zM265 443q0 -172 76.5 -262.5t183.5 -90.5q170 0 301 177l107 555q-130 165 -297 165 q-96 0 -182 -63t-137.5 -203.5t-51.5 -277.5z" />
<glyph unicode="e" d="M132 448q0 188 83 357q66 136 183.5 214t264.5 78q117 0 203.5 -48t134 -145t47.5 -236q0 -53 -12 -132h-762q-6 -62 -6 -93q0 -171 80.5 -259.5t206.5 -88.5q106 0 188.5 64t151.5 190l109 -59q-87 -147 -186 -218q-131 -94 -285 -94q-175 0 -288 122.5t-113 347.5z M300 647h608q8 35 8 67q0 131 -69.5 204t-182.5 73q-144 0 -249 -113q-75 -83 -115 -231z" />
<glyph unicode="f" horiz-adv-x="555" d="M126 0l185 958h-185l22 117h186q10 49 20 106q32 181 74 237q73 98 211 98q43 0 103 -17l-23 -123q-52 6 -83 6q-52 0 -85 -27q-21 -24 -33.5 -63.5t-45.5 -216.5h189l-21 -117h-193l-185 -958h-136z" />
<glyph unicode="g" horiz-adv-x="1194" d="M42 -131q0 73 56.5 136.5t176.5 93.5q-81 24 -115 62.5t-34 85.5q0 53 47 105t163 91q-127 107 -127 254q0 165 122.5 282.5t310.5 117.5q98 0 166.5 -25.5t129.5 -76.5q91 64 139.5 82t118.5 20l-25 -129q-92 -2 -164 -50q54 -94 54 -190q0 -153 -123 -268t-314 -115 q-123 0 -208 48q-107 -31 -142 -64q-25 -23 -25 -52q0 -30 29 -49q53 -34 256.5 -55.5t293 -53.5t145.5 -81q69 -71 69 -169q0 -127 -108 -213.5t-359 -86.5q-290 0 -426 101q-107 79 -107 199zM168 -130q0 -79 66 -125q96 -66 327 -66q219 0 304 59q63 44 63 120 q0 85 -85.5 133t-348.5 76q-63 7 -104 14q-130 -43 -176 -95t-46 -116zM336 706q0 -110 77 -184.5t200 -74.5q147 0 232.5 80t85.5 198q0 119 -78.5 194.5t-209.5 75.5q-135 0 -221 -83.5t-86 -205.5z" />
<glyph unicode="h" horiz-adv-x="1153" d="M99 0l293 1516h136l-118 -617q179 198 351 198q122 0 200 -79.5t78 -221.5q0 -34 -9 -76l-140 -720h-134l134 688q12 61 12 109q0 82 -48 129t-124 47q-75 0 -158.5 -52t-190.5 -178l-144 -743h-138z" />
<glyph unicode="i" horiz-adv-x="555" d="M126 0l210 1075h136l-207 -1075h-139zM383 1339l36 177h138l-34 -177h-140z" />
<glyph unicode="j" horiz-adv-x="575" d="M-92 -431l23 126q37 -7 58 -7q50 0 85.5 34t51.5 116l240 1237h136l-217 -1134q-31 -161 -52 -210q-33 -79 -94 -123.5t-159 -44.5q-28 0 -72 6zM417 1344l33 172h138l-33 -172h-138z" />
<glyph unicode="k" horiz-adv-x="961" d="M96 0l293 1516h140l-173 -891l510 450h184l-456 -393l252 -682h-138l-214 593l-173 -148l-87 -445h-138z" />
<glyph unicode="l" horiz-adv-x="555" d="M128 0l290 1516h137l-290 -1516h-137z" />
<glyph unicode="m" horiz-adv-x="1792" d="M103 0l210 1075h122l-41 -205q177 227 371 227q108 0 181.5 -63t88.5 -172q111 131 199.5 183t179.5 52q120 0 197.5 -79t77.5 -214q0 -49 -12 -110l-135 -694h-137l137 713q9 43 9 85q0 80 -47 127.5t-117 47.5q-73 0 -151.5 -46.5t-200.5 -184.5l-140 -742h-141 l141 742q4 21 4 43q0 90 -46 138t-120 48q-78 0 -160 -50t-188 -179l-144 -742h-138z" />
<glyph unicode="n" horiz-adv-x="1153" d="M100 0l210 1075h123l-37 -194q178 216 367 216q121 0 199 -80.5t78 -219.5q0 -31 -7 -68l-139 -729h-138l130 672q13 68 13 128q0 79 -46.5 125.5t-125.5 46.5q-164 0 -343 -225l-146 -747h-138z" />
<glyph unicode="o" d="M135 444q0 184 73.5 340.5t193.5 234.5t247 78q160 0 266.5 -121.5t106.5 -347.5q0 -177 -76.5 -339t-196 -236.5t-236.5 -74.5q-166 0 -272 120t-106 346zM268 419q0 -156 74.5 -242.5t175.5 -86.5q64 0 123.5 33t113.5 100.5t94 181.5t40 242q0 166 -76 254.5 t-178 88.5q-61 0 -120.5 -33.5t-112 -99.5t-87.5 -165q-47 -135 -47 -273z" />
<glyph unicode="p" horiz-adv-x="1174" d="M20 -431l293 1506h105l-10 -139q81 89 155 125t168 36q167 0 263.5 -109.5t96.5 -334.5q0 -167 -51 -301t-119 -210t-153 -120t-189 -44q-85 0 -158.5 32.5t-156.5 107.5l-108 -549h-136zM293 265q58 -90 133.5 -132t144.5 -42q73 0 147 44q54 32 102 94t83 152 q52 135 52 279q0 167 -71 247.5t-184 80.5q-81 0 -167.5 -53t-137.5 -141z" />
<glyph unicode="q" horiz-adv-x="1174" d="M138 441q0 158 51.5 289t122 208t154.5 118t184 41q98 0 179.5 -42.5t146.5 -127.5q37 118 51 148h115q-38 -109 -71 -280l-234 -1226h-137l106 552q-71 -71 -146.5 -107t-169.5 -36q-110 0 -190.5 52t-121 161.5t-40.5 249.5zM273 424q0 -166 72 -250t179 -84 q163 0 305 154l112 588q-67 80 -139.5 120t-149.5 40q-89 0 -176.5 -61t-145 -209t-57.5 -298z" />
<glyph unicode="r" horiz-adv-x="682" d="M100 0l208 1075h136l-36 -191q83 116 153.5 164.5t144.5 48.5q12 0 35 -1l-24 -131q-64 -7 -120.5 -38t-117.5 -93q-46 -46 -93 -128q-19 -33 -29 -83l-119 -623h-138z" />
<glyph unicode="s" horiz-adv-x="961" d="M65 267l107 53q62 -130 127 -179t164 -49q111 0 174.5 58t63.5 140q0 59 -39 105t-165.5 108.5t-189.5 117.5q-40 41 -57.5 81t-17.5 95q0 127 93.5 213.5t252.5 86.5q229 0 341 -213l-105 -50q-73 156 -235 156q-99 0 -158.5 -54t-59.5 -125q0 -50 37 -92 q36 -42 164 -105q178 -89 225 -153t47 -161q0 -134 -100.5 -228t-264.5 -94q-143 0 -239 72t-165 217z" />
<glyph unicode="t" horiz-adv-x="662" d="M99 958l23 117h196l70 364h138l-68 -364h234l-22 -117h-237l-137 -716q-3 -17 -3 -34q0 -49 27.5 -75.5t80.5 -26.5q48 0 170 37l-22 -114q-116 -51 -204 -51q-83 0 -138 52.5t-55 122.5q0 73 29 221l115 584h-197z" />
<glyph unicode="u" horiz-adv-x="1130" d="M115 279q0 60 15 134l132 662h137l-127 -650q-19 -97 -19 -161q0 -62 50 -109.5t119 -47.5q162 0 350 229l144 739h138l-207 -1075h-126l37 199q-184 -221 -368 -221q-121 0 -198 79t-77 222z" />
<glyph unicode="v" horiz-adv-x="961" d="M148 1075h127l138 -920l435 920h137l-523 -1075h-145z" />
<glyph unicode="w" horiz-adv-x="1493" d="M193 1075h124l58 -917l405 917h135l44 -908l426 908h126l-503 -1075h-147l-49 897l-392 -897h-155z" />
<glyph unicode="x" horiz-adv-x="961" d="M7 0l415 572l-225 503h142l174 -419l305 419h147l-385 -517l259 -558h-143l-206 469l-331 -469h-152z" />
<glyph unicode="y" horiz-adv-x="961" d="M-67 -403l23 106q71 -23 110 -23q74 0 133.5 57t139.5 239l-173 1099h127l137 -923l436 923h138l-607 -1240q-130 -266 -330 -266q-59 0 -134 28z" />
<glyph unicode="z" horiz-adv-x="961" d="M4 0l24 130l790 830h-606l22 115h773l-19 -115l-802 -844h655l-23 -116h-814z" />
<glyph unicode="{" horiz-adv-x="682" d="M203 473v163q77 2 125.5 42t64.5 108.5t17 236.5t6 221q10 87 36 138.5t63 80.5t95 44q34 9 116 9h56v-157h-31q-104 0 -138 -37.5t-34 -168.5v-148q0 -214 -47 -304.5t-162 -145.5q110 -47 159.5 -141.5t49.5 -309.5v-148q0 -104 18.5 -142.5t53 -50.5t131.5 -12v-157 h-56q-99 0 -143 16q-64 23 -105.5 75t-54 131t-13.5 258.5t-17 248t-64.5 108.5t-125.5 42z" />
<glyph unicode="|" horiz-adv-x="1087" d="M478 -431v1947h132v-1947h-132z" />
<glyph unicode="}" horiz-adv-x="682" d="M114 -249h31q104 0 138 37.5t34 167.5v148q0 215 49.5 309.5t159.5 141.5q-115 55 -162 145.5t-47 304.5v148q0 131 -34 168.5t-138 37.5h-31v157h56q99 0 143 -17q64 -22 105.5 -74t54 -131t13.5 -258.5t17 -248.5t64.5 -109t125.5 -42v-163q-77 -2 -125.5 -42 t-64.5 -108.5t-17 -236t-6 -221.5q-10 -87 -36 -138.5t-63 -80.5t-95 -44q-34 -8 -116 -8h-56v157z" />
<glyph unicode="~" horiz-adv-x="1343" d="M131 598v143q80 65 158 95t135 30q51 0 108.5 -16.5t190 -80.5t201.5 -64q63 0 131 31t158 110v-145q-153 -128 -284 -128q-57 0 -112.5 16t-192 81t-200.5 65q-128 0 -293 -137z" />
<glyph unicode="&#xa1;" horiz-adv-x="748" d="M53 -431l258 1055h110l-154 -1055h-214zM311 860l46 227h200l-44 -227h-202z" />
<glyph unicode="&#xa2;" horiz-adv-x="1130" d="M152 443q0 216 116 398q149 237 388 237q18 0 55 -3l114 361h89l-123 -379q94 -40 151 -109t84 -176l-112 -23q-35 144 -155 202l-276 -857q64 -17 102 -17q96 0 165 54.5t122 162.5l100 -47q-50 -100 -95 -148q-60 -63 -139 -97t-157 -34q-48 0 -131 12l-135 -420h-87 l142 454q-109 65 -163.5 176t-54.5 253zM281 432q0 -112 31.5 -181.5t93.5 -121.5l272 847q-80 -1 -141 -28.5t-116 -90t-90 -153.5q-50 -132 -50 -272z" />
<glyph unicode="&#xa3;" horiz-adv-x="1280" d="M37 173q0 91 58.5 150.5t142.5 59.5q100 0 200 -73q51 119 51 398l-1 55h-303l20 103h283q15 199 33.5 293.5t56.5 169.5q24 47 76 105q123 111 283 111q110 0 182 -46.5t103 -132.5q19 -52 19 -154h-133q1 28 1 48q0 79 -48 126.5t-131 47.5q-88 0 -156.5 -54 t-97.5 -159.5t-45 -354.5h359l-20 -103h-339q-27 -388 -92 -524q96 -75 154.5 -100.5t117.5 -25.5q79 0 130.5 55.5t61.5 179.5h134q-19 -168 -102 -273t-219 -105q-65 0 -132 31q-51 23 -196 137q-120 -168 -255 -168q-84 0 -140 57.5t-56 145.5zM129 174q0 -48 29.5 -78.5 t69.5 -30.5q41 0 87.5 36t81.5 111q-103 79 -160 79q-42 0 -75 -34t-33 -83z" />
<glyph unicode="&#xa4;" horiz-adv-x="1409" d="M199 265l127 125q-48 69 -69.5 132.5t-21.5 139.5q0 77 21.5 140.5t69.5 132.5l-127 126l89 90l127 -126q67 45 135 67.5t137 22.5q75 0 139 -21.5t134 -69.5l127 127l88 -90l-126 -127q90 -131 90 -272q0 -76 -21.5 -139t-68.5 -132l126 -126l-88 -89l-127 126 q-69 -48 -132.5 -69.5t-140.5 -21.5t-140 21.5t-132 68.5l-126 -125zM362 663q0 -135 95 -230.5t230 -95.5t230 95.5t95 230.5q0 134 -95 229.5t-230 95.5t-230 -95.5t-95 -229.5z" />
<glyph unicode="&#xa5;" horiz-adv-x="1194" d="M71 325l21 112h443l39 199l-7 24h-430l21 112h374l-231 744h149l219 -744l497 744h167l-505 -744h356l-21 -112h-411l-32 -47l-34 -176h432l-21 -112h-433l-63 -325h-151l63 325h-442z" />
<glyph unicode="&#xa6;" horiz-adv-x="1087" d="M478 293h132v-724h-132v724zM478 791v725h132v-725h-132z" />
<glyph unicode="&#xa7;" horiz-adv-x="1174" d="M80 -135l159 37q10 -96 69.5 -149t155.5 -53q98 0 160.5 55.5t62.5 125.5q0 57 -40 110q-41 53 -173 139.5t-187.5 138.5t-85 112.5t-29.5 132.5q0 119 73 215.5t279 212.5q-80 57 -120 123t-40 142q0 134 114.5 236t307.5 102q170 0 260 -96q66 -71 82 -199l-162 -38 q-5 93 -64 147.5t-156 54.5q-101 0 -162 -54.5t-61 -128.5q0 -56 41 -107q40 -52 203.5 -161t218.5 -188t55 -175q0 -122 -78.5 -220.5t-278.5 -204.5q92 -70 128 -129t36 -130q0 -140 -112 -243.5t-297 -103.5q-175 0 -272 96q-75 74 -87 200zM317 552q0 -66 44.5 -125 t231.5 -191q160 78 229.5 163.5t69.5 158.5q0 68 -46 128.5t-234 191.5q-295 -156 -295 -326z" />
<glyph unicode="&#xa8;" horiz-adv-x="682" d="M261 1264l29 149h147l-29 -149h-147zM617 1264l29 149h145l-27 -149h-147z" />
<glyph unicode="&#xa9;" horiz-adv-x="1516" d="M3 790q0 197 101.5 378.5t282.5 279t371 97.5t371 -97.5t282 -279t101 -378.5q0 -195 -99.5 -374.5t-279 -279.5t-375.5 -100t-375.5 100t-279.5 279.5t-100 374.5zM128 790q0 -163 83.5 -312.5t233.5 -233t313 -83.5t313 83.5t233 233t83 312.5q0 164 -84.5 315.5 t-235.5 233t-309 81.5q-159 0 -309.5 -81.5t-235.5 -233t-85 -315.5zM363 788q0 202 109 314t295 112q133 0 221 -63.5t120 -172.5l-119 -29q-30 74 -88.5 114t-137.5 40q-115 0 -189.5 -82.5t-74.5 -235.5t70.5 -231.5t182.5 -78.5q90 0 158 52t90 141l123 -36 q-30 -125 -127.5 -199.5t-236.5 -74.5q-176 0 -286 114.5t-110 315.5z" />
<glyph unicode="&#xaa;" horiz-adv-x="682" d="M142 1024q0 91 75 149q102 77 294 77h95q14 48 14 78q0 65 -42.5 106t-114.5 41q-45 0 -81 -17t-77 -59l-57 49q50 52 100 74.5t119 22.5q112 0 176.5 -59t64.5 -144q0 -53 -31 -183q-42 -174 -55 -318h-79v83q-64 -54 -111.5 -75.5t-96.5 -21.5q-80 0 -136.5 57.5 t-56.5 139.5zM231 1028q0 -56 35 -91.5t88 -35.5q44 0 94.5 23t108.5 69q23 143 34 187h-69q-167 0 -237 -51q-54 -38 -54 -101z" />
<glyph unicode="&#xab;" horiz-adv-x="961" d="M52 532l346 543h153l-355 -562l184 -513h-144zM421 535l343 540h155l-352 -557l179 -518h-141z" />
<glyph unicode="&#xac;" horiz-adv-x="1366" d="M139 844v131h1088v-619h-130l-1 488h-957z" />
<glyph unicode="&#xad;" horiz-adv-x="641" d="M137 464l29 147h339l-29 -147h-339z" />
<glyph unicode="&#xae;" horiz-adv-x="1516" d="M3 790q0 197 101.5 378.5t282.5 279t371 97.5t371 -97.5t282 -279t101 -378.5q0 -195 -99.5 -374.5t-279 -279.5t-375.5 -100t-375.5 100t-279.5 279.5t-100 374.5zM128 790q0 -163 83.5 -312.5t233.5 -233t313 -83.5t313 83.5t233 233t83 312.5q0 164 -84.5 315.5 t-235.5 233t-309 81.5q-159 0 -309.5 -81.5t-235.5 -233t-85 -315.5zM427 373v812h279q143 0 207 -22.5t102 -78t38 -119.5q0 -89 -63.5 -155t-168.5 -74q43 -18 69 -43q49 -48 120 -161l99 -159h-160l-72 128q-82 145 -126 181t-116 36h-77v-345h-131zM558 830h159 q114 0 155.5 34t41.5 90q0 66 -56 98q-39 23 -151 23h-149v-245z" />
<glyph unicode="&#xaf;" horiz-adv-x="1131" d="M-40 1555v130h1193v-130h-1193z" />
<glyph unicode="&#xb0;" horiz-adv-x="811" d="M128 1268q0 115 81.5 196t195.5 81q116 0 197 -81t81 -196t-81.5 -196.5t-196.5 -81.5q-114 0 -195.5 81.5t-81.5 196.5zM237 1268q0 -70 49.5 -119.5t119.5 -49.5q69 0 118.5 49.5t49.5 119.5t-49.5 119.5t-118.5 49.5q-70 0 -119.5 -49.5t-49.5 -119.5z" />
<glyph unicode="&#xb1;" horiz-adv-x="1366" d="M138 -44v131h1089v-131h-1089zM138 763v131h477v480h131v-480h481v-131h-481v-477h-131v477h-477z" />
<glyph unicode="&#xb2;" horiz-adv-x="641" d="M60 734q14 121 83 210t238 184q95 54 124 90q42 52 42 103q0 39 -27.5 66t-69.5 27q-106 0 -177 -121l-92 31q107 192 284 192q91 0 145 -51t54 -126q0 -55 -30.5 -111t-86.5 -105q-31 -27 -110 -68q-116 -59 -165 -106t-82 -114h379l-19 -101h-490z" />
<glyph unicode="&#xb3;" horiz-adv-x="641" d="M54 830l100 65q77 -83 155 -83q69 0 115.5 43.5t46.5 99.5q0 63 -54 97q-39 23 -130 23h-28l18 96q129 0 201 54q54 42 54 100q0 40 -24.5 64t-70.5 24q-40 0 -76 -16t-84 -58l-67 69q70 58 130 83t127 25q84 0 131.5 -44.5t47.5 -114.5q0 -77 -54.5 -139t-171.5 -92 q92 -18 127.5 -57t35.5 -101q0 -101 -87.5 -180t-222.5 -79q-141 0 -219 121z" />
<glyph unicode="&#xb4;" horiz-adv-x="682" d="M337 1186l268 310h260l-403 -310h-125z" />
<glyph unicode="&#xb5;" horiz-adv-x="1130" d="M136 -407v1469h178v-450q0 -212 18 -291.5t80.5 -131t146.5 -51.5q85 0 151.5 49.5t86.5 125t20 296.5v453h177v-1062h-161v126q-52 -80 -103 -110q-70 -41 -163 -41q-83 0 -147 33q-48 25 -106 99v-514h-178z" />
<glyph unicode="&#xb6;" horiz-adv-x="1323" d="M97 1097q0 108 45 195.5t127 143.5q53 36 140.5 58t166.5 22h691v-139h-196v-1736h-127v1736h-267v-1736h-131v1033q-134 0 -231 45.5t-157.5 147.5t-60.5 230z" />
<glyph unicode="&#xb8;" horiz-adv-x="682" d="M42 -396l51 89q62 -12 106 -12q116 0 164 33q34 22 34 59q0 30 -28 50q-36 27 -131 32l65 163h96l-42 -105q71 0 113.5 -39t42.5 -98q0 -74 -73 -131t-229 -57q-58 0 -169 16z" />
<glyph unicode="&#xb9;" horiz-adv-x="641" d="M171 740l20 100h90l104 530q-49 -14 -95 -17l19 94q73 16 90 22q27 10 61 31h56l-131 -660h95l-20 -100h-289z" />
<glyph unicode="&#xba;" horiz-adv-x="682" d="M142 1128q0 189 99.5 303t225.5 114q105 0 174.5 -78.5t69.5 -223.5q0 -183 -100.5 -298.5t-225.5 -115.5q-107 0 -175 76.5t-68 222.5zM226 1108q0 -99 47.5 -154t113.5 -55q85 0 148 81q90 113 90 273q0 110 -47.5 166t-116.5 56q-104 0 -169.5 -115.5t-65.5 -251.5z " />
<glyph unicode="&#xbb;" horiz-adv-x="961" d="M46 0l357 557l-181 518h141l186 -536l-344 -539h-159zM417 0l355 561l-182 514h141l184 -532l-345 -543h-153z" />
<glyph unicode="&#xbc;" horiz-adv-x="1921" d="M315 567l21 115h160l141 723q-74 -35 -146 -35h-22l19 86q101 10 183 87h108l-167 -861h167l-20 -115h-444zM451 -204l1294 1756l80 -44l-1299 -1761zM1034 0l20 97l563 686h159l-139 -686h203l-19 -97h-197l-49 -253h-115l49 253h-475zM1186 97h341l110 547z" />
<glyph unicode="&#xbd;" horiz-adv-x="1921" d="M325 567l21 114h160l139 715q-78 -26 -167 -26l17 84q99 14 180 88h112l-166 -861h175l-24 -114h-447zM408 -202l1290 1751l79 -46l-1293 -1754zM1135 -251q22 116 80 190q121 153 372 324q127 88 172 149q44 60 44 121q0 60 -41 100t-105 40q-163 0 -273 -215l-106 34 q75 147 181 220.5t216 73.5q116 0 188 -69.5t72 -173.5q0 -68 -36.5 -135.5t-100.5 -124.5q-38 -35 -144 -99q-143 -87 -215.5 -153t-143.5 -166h522l-21 -116h-661z" />
<glyph unicode="&#xbe;" horiz-adv-x="1921" d="M54 751l104 67q73 -139 202 -139q90 0 160 64.5t70 137.5q0 45 -26.5 80.5t-72.5 51.5q-32 12 -106 12l-103 -1l56 115q110 0 171.5 23t97 71.5t35.5 85.5q0 44 -36 77t-94 33q-115 0 -230 -111l-71 79q90 80 166 114t156 34q104 0 167 -60t63 -150q0 -110 -89 -185 q-53 -43 -159 -59q95 -15 142.5 -68.5t47.5 -133.5q0 -136 -123.5 -231.5t-260.5 -95.5q-171 0 -267 189zM211 -208l1300 1756l82 -48l-1299 -1753zM810 0l20 95l561 688h165l-133 -688h189l-19 -95h-194l-48 -253h-116l48 253h-473zM962 95h344l106 547z" />
<glyph unicode="&#xbf;" horiz-adv-x="961" d="M40 -144q0 100 53.5 188.5t212.5 217.5q105 86 141.5 134.5t57.5 106.5q14 40 22 124h133q-7 -105 -34 -174.5t-87 -141.5q-42 -50 -193 -187q-99 -89 -129 -145t-30 -121q0 -89 54.5 -144.5t138.5 -55.5q71 0 127 44.5t83 132.5l113 -36q-41 -110 -102 -167 q-97 -90 -244 -90q-143 0 -230 87t-87 227zM579 863l45 225h200l-44 -225h-201z" />
<glyph unicode="&#xc0;" horiz-adv-x="1323" d="M2 0l758 1516h209l242 -1516h-143l-72 458h-622l-225 -458h-147zM435 584h542l-131 842zM553 1917h262l267 -311h-123z" />
<glyph unicode="&#xc1;" horiz-adv-x="1323" d="M2 0l758 1516h209l242 -1516h-143l-72 458h-622l-225 -458h-147zM435 584h542l-131 842zM702 1606l268 310h260l-403 -310h-125z" />
<glyph unicode="&#xc2;" horiz-adv-x="1323" d="M2 0l758 1516h209l242 -1516h-143l-72 458h-622l-225 -458h-147zM435 584h542l-131 842zM550 1604l333 316h125l146 -316h-95l-131 190l-280 -190h-98z" />
<glyph unicode="&#xc3;" horiz-adv-x="1323" d="M2 0l758 1516h209l242 -1516h-143l-72 458h-622l-225 -458h-147zM435 584h542l-131 842zM582 1629q11 127 68.5 189t132.5 62q59 0 143 -55q62 -41 93 -41q23 0 44 18q27 24 48 80h90q-2 -117 -60.5 -185t-126.5 -68q-54 0 -131.5 52t-110.5 52q-31 0 -54.5 -23.5 t-35.5 -80.5h-100z" />
<glyph unicode="&#xc4;" horiz-adv-x="1323" d="M2 0l758 1516h209l242 -1516h-143l-72 458h-622l-225 -458h-147zM435 584h542l-131 842zM626 1684l29 149h147l-29 -149h-147zM982 1684l29 149h145l-27 -149h-147z" />
<glyph unicode="&#xc5;" horiz-adv-x="1323" d="M2 0l758 1516h209l242 -1516h-143l-72 458h-622l-225 -458h-147zM435 584h542l-131 842zM670 1766q0 78 55 133t133 55t133 -55t55 -133q0 -77 -55 -132.5t-130 -55.5q-81 0 -136 55t-55 133zM733 1766q0 -51 36.5 -87.5t85.5 -36.5q54 0 91 36.5t37 87.5q0 52 -37 88.5 t-88 36.5q-52 0 -88.5 -36.5t-36.5 -88.5z" />
<glyph unicode="&#xc6;" horiz-adv-x="1878" d="M7 0l813 1516h1173l-24 -118h-707l-104 -541h572l-23 -121h-574l-119 -616h764l-23 -120h-914l88 458h-533l-239 -458h-150zM459 582h495l159 816h-225z" />
<glyph unicode="&#xc7;" horiz-adv-x="1430" d="M204 614q0 247 103.5 483t268 342t339.5 106q189 0 324 -113.5t171 -309.5l-138 -34q-29 165 -126.5 251t-237.5 86q-264 0 -417 -272q-120 -213 -120 -533q0 -272 107 -399t266 -127q238 0 410 266l118 -53q-101 -162 -236 -249.5t-305 -87.5q-230 0 -378.5 165 t-148.5 479zM416 -396l51 89q62 -12 106 -12q116 0 164 33q34 22 34 59q0 30 -28 50q-36 27 -131 32l65 163h96l-42 -105q71 0 113.5 -39t42.5 -98q0 -74 -73 -131t-229 -57q-58 0 -169 16z" />
<glyph unicode="&#xc8;" horiz-adv-x="1194" d="M163 0l295 1516h857l-23 -120h-709l-104 -539h574l-23 -121h-572l-122 -615h764l-23 -121h-914zM488 1917h262l267 -311h-123z" />
<glyph unicode="&#xc9;" horiz-adv-x="1194" d="M163 0l295 1516h857l-23 -120h-709l-104 -539h574l-23 -121h-572l-122 -615h764l-23 -121h-914zM637 1606l268 310h260l-403 -310h-125z" />
<glyph unicode="&#xca;" horiz-adv-x="1194" d="M163 0l295 1516h857l-23 -120h-709l-104 -539h574l-23 -121h-572l-122 -615h764l-23 -121h-914zM575 1604l333 316h125l146 -316h-95l-131 190l-280 -190h-98z" />
<glyph unicode="&#xcb;" horiz-adv-x="1194" d="M163 0l295 1516h857l-23 -120h-709l-104 -539h574l-23 -121h-572l-122 -615h764l-23 -121h-914zM651 1684l29 149h147l-29 -149h-147zM1007 1684l29 149h145l-27 -149h-147z" />
<glyph unicode="&#xcc;" horiz-adv-x="618" d="M181 0l291 1516h148l-290 -1516h-149zM238 1917h262l267 -311h-123z" />
<glyph unicode="&#xcd;" horiz-adv-x="618" d="M181 0l291 1516h148l-290 -1516h-149zM349 1606l268 310h260l-403 -310h-125z" />
<glyph unicode="&#xce;" horiz-adv-x="618" d="M181 0l291 1516h148l-290 -1516h-149zM235 1604l333 316h125l146 -316h-95l-131 190l-280 -190h-98z" />
<glyph unicode="&#xcf;" horiz-adv-x="618" d="M181 0l291 1516h148l-290 -1516h-149zM316 1684l29 149h147l-29 -149h-147zM672 1684l29 149h145l-27 -149h-147z" />
<glyph unicode="&#xd0;" horiz-adv-x="1450" d="M133 698l21 116h180l137 702h464q222 0 353 -149.5t131 -470.5q0 -393 -199 -644.5t-579 -251.5h-465l136 698h-179zM349 123h185q267 0 411 76t227.5 262t83.5 448q0 260 -103 373.5t-310 113.5h-247l-113 -582h326l-22 -116h-326z" />
<glyph unicode="&#xd1;" horiz-adv-x="1536" d="M151 0l298 1516h208l541 -1225l235 1225h140l-291 -1516h-98l-619 1397l-272 -1397h-142zM737 1629q11 127 68.5 189t132.5 62q59 0 143 -55q62 -41 93 -41q23 0 44 18q27 24 48 80h90q-2 -117 -60.5 -185t-126.5 -68q-54 0 -131.5 52t-110.5 52q-31 0 -54.5 -23.5 t-35.5 -80.5h-100z" />
<glyph unicode="&#xd2;" horiz-adv-x="1516" d="M217 593q0 222 93 448q108 262 275 383t362 121q243 0 391.5 -158.5t148.5 -451.5q0 -240 -107.5 -490t-271.5 -362.5t-342 -112.5q-253 0 -401 159.5t-148 463.5zM370 522q0 -135 50.5 -234t139 -146.5t187.5 -47.5q107 0 202 54t173.5 156.5t134.5 265.5q74 215 74 424 q0 202 -106.5 315t-269.5 113q-105 0 -200.5 -54t-176 -159t-137.5 -278q-71 -213 -71 -409zM669 1917h262l267 -311h-123z" />
<glyph unicode="&#xd3;" horiz-adv-x="1516" d="M217 593q0 222 93 448q108 262 275 383t362 121q243 0 391.5 -158.5t148.5 -451.5q0 -240 -107.5 -490t-271.5 -362.5t-342 -112.5q-253 0 -401 159.5t-148 463.5zM370 522q0 -135 50.5 -234t139 -146.5t187.5 -47.5q107 0 202 54t173.5 156.5t134.5 265.5q74 215 74 424 q0 202 -106.5 315t-269.5 113q-105 0 -200.5 -54t-176 -159t-137.5 -278q-71 -213 -71 -409zM798 1606l268 310h260l-403 -310h-125z" />
<glyph unicode="&#xd4;" horiz-adv-x="1516" d="M217 593q0 222 93 448q108 262 275 383t362 121q243 0 391.5 -158.5t148.5 -451.5q0 -240 -107.5 -490t-271.5 -362.5t-342 -112.5q-253 0 -401 159.5t-148 463.5zM370 522q0 -135 50.5 -234t139 -146.5t187.5 -47.5q107 0 202 54t173.5 156.5t134.5 265.5q74 215 74 424 q0 202 -106.5 315t-269.5 113q-105 0 -200.5 -54t-176 -159t-137.5 -278q-71 -213 -71 -409zM676 1604l333 316h125l146 -316h-95l-131 190l-280 -190h-98z" />
<glyph unicode="&#xd5;" horiz-adv-x="1516" d="M217 593q0 222 93 448q108 262 275 383t362 121q243 0 391.5 -158.5t148.5 -451.5q0 -240 -107.5 -490t-271.5 -362.5t-342 -112.5q-253 0 -401 159.5t-148 463.5zM370 522q0 -135 50.5 -234t139 -146.5t187.5 -47.5q107 0 202 54t173.5 156.5t134.5 265.5q74 215 74 424 q0 202 -106.5 315t-269.5 113q-105 0 -200.5 -54t-176 -159t-137.5 -278q-71 -213 -71 -409zM673 1629q11 127 68.5 189t132.5 62q59 0 143 -55q62 -41 93 -41q23 0 44 18q27 24 48 80h90q-2 -117 -60.5 -185t-126.5 -68q-54 0 -131.5 52t-110.5 52q-31 0 -54.5 -23.5 t-35.5 -80.5h-100z" />
<glyph unicode="&#xd6;" horiz-adv-x="1516" d="M217 593q0 222 93 448q108 262 275 383t362 121q243 0 391.5 -158.5t148.5 -451.5q0 -240 -107.5 -490t-271.5 -362.5t-342 -112.5q-253 0 -401 159.5t-148 463.5zM370 522q0 -135 50.5 -234t139 -146.5t187.5 -47.5q107 0 202 54t173.5 156.5t134.5 265.5q74 215 74 424 q0 202 -106.5 315t-269.5 113q-105 0 -200.5 -54t-176 -159t-137.5 -278q-71 -213 -71 -409zM772 1684l29 149h147l-29 -149h-147zM1128 1684l29 149h145l-27 -149h-147z" />
<glyph unicode="&#xd7;" horiz-adv-x="1366" d="M184 1070l92 93l408 -409l408 409l93 -93l-408 -409l404 -404l-93 -93l-403 405l-407 -405l-92 93l406 404z" />
<glyph unicode="&#xd8;" horiz-adv-x="1516" d="M156 37l153 175q-95 154 -95 392q0 214 96 442q110 262 277 380.5t358 118.5q219 0 386 -147l126 147l72 -68l-137 -159q52 -95 74.5 -181.5t22.5 -196.5q0 -236 -104 -486.5t-270.5 -367t-354.5 -116.5q-127 0 -219 40t-172 117l-135 -155zM369 539q0 -96 34 -217 l839 973q-118 128 -290 128q-104 0 -199 -53.5t-173.5 -156t-135.5 -261.5q-75 -210 -75 -413zM456 230q114 -137 295 -137q101 0 194.5 51t176.5 157t141 276q73 217 73 423q0 111 -40 204z" />
<glyph unicode="&#xd9;" horiz-adv-x="1493" d="M245 404q0 91 22 206l175 906h148l-168 -872q-26 -135 -26 -240q0 -134 88 -217.5t249 -83.5q226 0 348 141q78 90 116 296l184 976h149l-200 -1049q-47 -247 -197 -372t-398 -125q-130 0 -226 33q-67 23 -129 79.5t-98.5 131.5t-36.5 190zM638 1917h262l267 -311h-123z " />
<glyph unicode="&#xda;" horiz-adv-x="1493" d="M245 404q0 91 22 206l175 906h148l-168 -872q-26 -135 -26 -240q0 -134 88 -217.5t249 -83.5q226 0 348 141q78 90 116 296l184 976h149l-200 -1049q-47 -247 -197 -372t-398 -125q-130 0 -226 33q-67 23 -129 79.5t-98.5 131.5t-36.5 190zM787 1606l268 310h260 l-403 -310h-125z" />
<glyph unicode="&#xdb;" horiz-adv-x="1493" d="M245 404q0 91 22 206l175 906h148l-168 -872q-26 -135 -26 -240q0 -134 88 -217.5t249 -83.5q226 0 348 141q78 90 116 296l184 976h149l-200 -1049q-47 -247 -197 -372t-398 -125q-130 0 -226 33q-67 23 -129 79.5t-98.5 131.5t-36.5 190zM676 1604l333 316h125 l146 -316h-95l-131 190l-280 -190h-98z" />
<glyph unicode="&#xdc;" horiz-adv-x="1493" d="M245 404q0 91 22 206l175 906h148l-168 -872q-26 -135 -26 -240q0 -134 88 -217.5t249 -83.5q226 0 348 141q78 90 116 296l184 976h149l-200 -1049q-47 -247 -197 -372t-398 -125q-130 0 -226 33q-67 23 -129 79.5t-98.5 131.5t-36.5 190zM741 1684l29 149h147l-29 -149 h-147zM1097 1684l29 149h145l-27 -149h-147z" />
<glyph unicode="&#xdd;" horiz-adv-x="1194" d="M301 1516h149l219 -744l496 744h167l-613 -903l-118 -613h-151l124 636zM657 1606l268 310h260l-403 -310h-125z" />
<glyph unicode="&#xde;" horiz-adv-x="1323" d="M149 0l293 1516h149l-68 -342h389q176 0 284.5 -104.5t108.5 -264.5q0 -104 -44 -200q-31 -67 -72 -107q-66 -66 -159 -110t-228 -44h-438l-66 -344h-149zM387 465h371q136 0 227.5 46.5t132.5 121.5t41 169q0 115 -75.5 184t-226.5 69h-357z" />
<glyph unicode="&#xdf;" horiz-adv-x="1174" d="M126 0l225 1181q33 171 149 267.5t286 96.5q154 0 248.5 -89t94.5 -214q0 -106 -72 -200.5t-235 -163.5q117 -47 185.5 -151.5t68.5 -247.5q0 -218 -131.5 -363.5t-291.5 -145.5q-101 0 -162.5 64t-61.5 169q0 32 5 81h104q0 -121 31.5 -161.5t89.5 -40.5q105 0 181 94 q102 128 102 315q0 162 -92.5 254t-260.5 96l18 100q181 0 286 92.5t105 204.5q0 86 -58.5 140.5t-163.5 54.5q-118 0 -181 -58q-85 -77 -111 -211l-220 -1164h-138z" />
<glyph unicode="&#xe0;" d="M92 283q0 146 116 235q158 121 460 121h149q22 75 22 120q0 100 -69.5 166.5t-180.5 66.5q-64 0 -121 -27t-124 -93l-87 75q77 80 154.5 115t184.5 35q178 0 277.5 -93t99.5 -228q0 -82 -50 -290q-40 -170 -56 -270t-24 -216h-126v127q-104 -85 -177 -117t-147 -32 q-126 0 -213.5 88t-87.5 217zM230 293q0 -86 55 -142.5t133 -56.5q70 0 150 35.5t171 106.5q18 142 52 293h-103q-266 0 -362 -69t-96 -167zM402 1497h262l267 -311h-123z" />
<glyph unicode="&#xe1;" d="M92 283q0 146 116 235q158 121 460 121h149q22 75 22 120q0 100 -69.5 166.5t-180.5 66.5q-64 0 -121 -27t-124 -93l-87 75q77 80 154.5 115t184.5 35q178 0 277.5 -93t99.5 -228q0 -82 -50 -290q-40 -170 -56 -270t-24 -216h-126v127q-104 -85 -177 -117t-147 -32 q-126 0 -213.5 88t-87.5 217zM230 293q0 -86 55 -142.5t133 -56.5q70 0 150 35.5t171 106.5q18 142 52 293h-103q-266 0 -362 -69t-96 -167zM521 1186l268 310h260l-403 -310h-125z" />
<glyph unicode="&#xe2;" d="M92 283q0 146 116 235q158 121 460 121h149q22 75 22 120q0 100 -69.5 166.5t-180.5 66.5q-64 0 -121 -27t-124 -93l-87 75q77 80 154.5 115t184.5 35q178 0 277.5 -93t99.5 -228q0 -82 -50 -290q-40 -170 -56 -270t-24 -216h-126v127q-104 -85 -177 -117t-147 -32 q-126 0 -213.5 88t-87.5 217zM230 293q0 -86 55 -142.5t133 -56.5q70 0 150 35.5t171 106.5q18 142 52 293h-103q-266 0 -362 -69t-96 -167zM379 1184l333 316h125l146 -316h-95l-131 190l-280 -190h-98z" />
<glyph unicode="&#xe3;" d="M92 283q0 146 116 235q158 121 460 121h149q22 75 22 120q0 100 -69.5 166.5t-180.5 66.5q-64 0 -121 -27t-124 -93l-87 75q77 80 154.5 115t184.5 35q178 0 277.5 -93t99.5 -228q0 -82 -50 -290q-40 -170 -56 -270t-24 -216h-126v127q-104 -85 -177 -117t-147 -32 q-126 0 -213.5 88t-87.5 217zM230 293q0 -86 55 -142.5t133 -56.5q70 0 150 35.5t171 106.5q18 142 52 293h-103q-266 0 -362 -69t-96 -167zM376 1209q11 127 68.5 189t132.5 62q59 0 143 -55q62 -41 93 -41q23 0 44 18q27 24 48 80h90q-2 -117 -60.5 -185t-126.5 -68 q-54 0 -131.5 52t-110.5 52q-31 0 -54.5 -23.5t-35.5 -80.5h-100z" />
<glyph unicode="&#xe4;" d="M92 283q0 146 116 235q158 121 460 121h149q22 75 22 120q0 100 -69.5 166.5t-180.5 66.5q-64 0 -121 -27t-124 -93l-87 75q77 80 154.5 115t184.5 35q178 0 277.5 -93t99.5 -228q0 -82 -50 -290q-40 -170 -56 -270t-24 -216h-126v127q-104 -85 -177 -117t-147 -32 q-126 0 -213.5 88t-87.5 217zM230 293q0 -86 55 -142.5t133 -56.5q70 0 150 35.5t171 106.5q18 142 52 293h-103q-266 0 -362 -69t-96 -167zM445 1264l29 149h147l-29 -149h-147zM801 1264l29 149h145l-27 -149h-147z" />
<glyph unicode="&#xe5;" d="M92 283q0 146 116 235q158 121 460 121h149q22 75 22 120q0 100 -69.5 166.5t-180.5 66.5q-64 0 -121 -27t-124 -93l-87 75q77 80 154.5 115t184.5 35q178 0 277.5 -93t99.5 -228q0 -82 -50 -290q-40 -170 -56 -270t-24 -216h-126v127q-104 -85 -177 -117t-147 -32 q-126 0 -213.5 88t-87.5 217zM230 293q0 -86 55 -142.5t133 -56.5q70 0 150 35.5t171 106.5q18 142 52 293h-103q-266 0 -362 -69t-96 -167zM519 1346q0 78 55 133t133 55t133 -55t55 -133q0 -77 -55 -132.5t-130 -55.5q-81 0 -136 55t-55 133zM582 1346q0 -51 36.5 -87.5 t85.5 -36.5q54 0 91 36.5t37 87.5q0 52 -37 88.5t-88 36.5q-52 0 -88.5 -36.5t-36.5 -88.5z" />
<glyph unicode="&#xe6;" horiz-adv-x="1665" d="M98 283q0 146 125 242q155 118 482 118q25 0 77 -1q22 67 22 124q0 103 -60.5 161.5t-162.5 58.5q-64 0 -116.5 -27t-113.5 -96l-89 78q143 156 337 156q102 0 183 -44.5t124 -128.5q74 84 155 125t182 41q161 0 257.5 -105.5t96.5 -316.5q0 -53 -10 -135h-701 q-13 -78 -13 -129q0 -150 71 -230.5t176 -80.5q93 0 181.5 63t143.5 194l107 -59q-50 -95 -101 -150q-71 -78 -158 -120.5t-179 -42.5q-101 0 -187.5 51.5t-144.5 157.5q-227 -209 -403 -209q-113 0 -197 88.5t-84 216.5zM234 285q0 -83 52 -136t129 -53q69 0 148 34 t196 123q-11 64 -11 124q0 67 11 156h-57q-245 0 -356.5 -62t-111.5 -186zM906 642h556q7 51 7 85q0 125 -60.5 192t-160.5 67q-135 0 -232 -113q-71 -84 -110 -231z" />
<glyph unicode="&#xe7;" horiz-adv-x="1087" d="M119 457q0 169 74.5 326.5t189.5 235.5t238 78q158 0 266 -104q76 -73 115 -204l-117 -26q-25 109 -96.5 168.5t-160.5 59.5q-84 0 -173.5 -60.5t-145.5 -197.5t-56 -287q0 -171 82.5 -261t214.5 -90q198 0 294 218l106 -49q-64 -134 -165.5 -210t-250.5 -76 q-177 0 -296 129t-119 350zM225 -396l51 89q62 -12 106 -12q116 0 164 33q34 22 34 59q0 30 -28 50q-36 27 -131 32l65 163h96l-42 -105q71 0 113.5 -39t42.5 -98q0 -74 -73 -131t-229 -57q-58 0 -169 16z" />
<glyph unicode="&#xe8;" d="M132 448q0 188 83 357q66 136 183.5 214t264.5 78q117 0 203.5 -48t134 -145t47.5 -236q0 -53 -12 -132h-762q-6 -62 -6 -93q0 -171 80.5 -259.5t206.5 -88.5q106 0 188.5 64t151.5 190l109 -59q-87 -147 -186 -218q-131 -94 -285 -94q-175 0 -288 122.5t-113 347.5z M300 647h608q8 35 8 67q0 131 -69.5 204t-182.5 73q-144 0 -249 -113q-75 -83 -115 -231zM402 1497h262l267 -311h-123z" />
<glyph unicode="&#xe9;" d="M132 448q0 188 83 357q66 136 183.5 214t264.5 78q117 0 203.5 -48t134 -145t47.5 -236q0 -53 -12 -132h-762q-6 -62 -6 -93q0 -171 80.5 -259.5t206.5 -88.5q106 0 188.5 64t151.5 190l109 -59q-87 -147 -186 -218q-131 -94 -285 -94q-175 0 -288 122.5t-113 347.5z M300 647h608q8 35 8 67q0 131 -69.5 204t-182.5 73q-144 0 -249 -113q-75 -83 -115 -231zM551 1186l268 310h260l-403 -310h-125z" />
<glyph unicode="&#xea;" d="M132 448q0 188 83 357q66 136 183.5 214t264.5 78q117 0 203.5 -48t134 -145t47.5 -236q0 -53 -12 -132h-762q-6 -62 -6 -93q0 -171 80.5 -259.5t206.5 -88.5q106 0 188.5 64t151.5 190l109 -59q-87 -147 -186 -218q-131 -94 -285 -94q-175 0 -288 122.5t-113 347.5z M300 647h608q8 35 8 67q0 131 -69.5 204t-182.5 73q-144 0 -249 -113q-75 -83 -115 -231zM379 1184l333 316h125l146 -316h-95l-131 190l-280 -190h-98z" />
<glyph unicode="&#xeb;" d="M132 448q0 188 83 357q66 136 183.5 214t264.5 78q117 0 203.5 -48t134 -145t47.5 -236q0 -53 -12 -132h-762q-6 -62 -6 -93q0 -171 80.5 -259.5t206.5 -88.5q106 0 188.5 64t151.5 190l109 -59q-87 -147 -186 -218q-131 -94 -285 -94q-175 0 -288 122.5t-113 347.5z M300 647h608q8 35 8 67q0 131 -69.5 204t-182.5 73q-144 0 -249 -113q-75 -83 -115 -231zM475 1264l29 149h147l-29 -149h-147zM831 1264l29 149h145l-27 -149h-147z" />
<glyph unicode="&#xec;" horiz-adv-x="555" d="M124 1497h262l267 -311h-123zM126 0l208 1075h138l-207 -1075h-139z" />
<glyph unicode="&#xed;" horiz-adv-x="555" d="M126 0l208 1075h138l-207 -1075h-139zM273 1186l268 310h260l-403 -310h-125z" />
<glyph unicode="&#xee;" horiz-adv-x="555" d="M101 1184l333 316h125l146 -316h-95l-131 190l-280 -190h-98zM126 0l208 1075h138l-207 -1075h-139z" />
<glyph unicode="&#xef;" horiz-adv-x="555" d="M126 0l208 1075h138l-207 -1075h-139zM177 1264l29 149h147l-29 -149h-147zM533 1264l29 149h145l-27 -149h-147z" />
<glyph unicode="&#xf0;" horiz-adv-x="1067" d="M120 448q0 187 72 339.5t189.5 231t246.5 78.5q64 0 113.5 -18t113.5 -67q-27 158 -84 282l-256 -119l-35 72l257 122q-35 68 -88 147h102l66 -108l159 74l35 -74l-156 -73q67 -153 93 -265q47 -201 47 -392q0 -186 -58 -349q-37 -103 -104 -182t-152 -124t-189 -45 q-162 0 -267 119t-105 351zM249 435q0 -173 73 -260.5t176 -87.5q156 0 260.5 174t104.5 377q0 171 -74.5 260.5t-173.5 89.5q-156 0 -261 -171.5t-105 -381.5z" />
<glyph unicode="&#xf1;" horiz-adv-x="1153" d="M100 0l210 1075h123l-37 -194q178 216 367 216q121 0 199 -80.5t78 -219.5q0 -31 -7 -68l-139 -729h-138l130 672q13 68 13 128q0 79 -46.5 125.5t-125.5 46.5q-164 0 -343 -225l-146 -747h-138zM438 1209q11 127 68.5 189t132.5 62q59 0 143 -55q62 -41 93 -41 q23 0 44 18q27 24 48 80h90q-2 -117 -60.5 -185t-126.5 -68q-54 0 -131.5 52t-110.5 52q-31 0 -54.5 -23.5t-35.5 -80.5h-100z" />
<glyph unicode="&#xf2;" d="M135 444q0 184 73.5 340.5t193.5 234.5t247 78q160 0 266.5 -121.5t106.5 -347.5q0 -177 -76.5 -339t-196 -236.5t-236.5 -74.5q-166 0 -272 120t-106 346zM268 419q0 -156 74.5 -242.5t175.5 -86.5q64 0 123.5 33t113.5 100.5t94 181.5t40 242q0 166 -76 254.5 t-178 88.5q-61 0 -120.5 -33.5t-112 -99.5t-87.5 -165q-47 -135 -47 -273zM402 1497h262l267 -311h-123z" />
<glyph unicode="&#xf3;" d="M135 444q0 184 73.5 340.5t193.5 234.5t247 78q160 0 266.5 -121.5t106.5 -347.5q0 -177 -76.5 -339t-196 -236.5t-236.5 -74.5q-166 0 -272 120t-106 346zM268 419q0 -156 74.5 -242.5t175.5 -86.5q64 0 123.5 33t113.5 100.5t94 181.5t40 242q0 166 -76 254.5 t-178 88.5q-61 0 -120.5 -33.5t-112 -99.5t-87.5 -165q-47 -135 -47 -273zM551 1186l268 310h260l-403 -310h-125z" />
<glyph unicode="&#xf4;" d="M135 444q0 184 73.5 340.5t193.5 234.5t247 78q160 0 266.5 -121.5t106.5 -347.5q0 -177 -76.5 -339t-196 -236.5t-236.5 -74.5q-166 0 -272 120t-106 346zM268 419q0 -156 74.5 -242.5t175.5 -86.5q64 0 123.5 33t113.5 100.5t94 181.5t40 242q0 166 -76 254.5 t-178 88.5q-61 0 -120.5 -33.5t-112 -99.5t-87.5 -165q-47 -135 -47 -273zM379 1184l333 316h125l146 -316h-95l-131 190l-280 -190h-98z" />
<glyph unicode="&#xf5;" d="M135 444q0 184 73.5 340.5t193.5 234.5t247 78q160 0 266.5 -121.5t106.5 -347.5q0 -177 -76.5 -339t-196 -236.5t-236.5 -74.5q-166 0 -272 120t-106 346zM268 419q0 -156 74.5 -242.5t175.5 -86.5q64 0 123.5 33t113.5 100.5t94 181.5t40 242q0 166 -76 254.5 t-178 88.5q-61 0 -120.5 -33.5t-112 -99.5t-87.5 -165q-47 -135 -47 -273zM376 1209q11 127 68.5 189t132.5 62q59 0 143 -55q62 -41 93 -41q23 0 44 18q27 24 48 80h90q-2 -117 -60.5 -185t-126.5 -68q-54 0 -131.5 52t-110.5 52q-31 0 -54.5 -23.5t-35.5 -80.5h-100z" />
<glyph unicode="&#xf6;" d="M135 444q0 184 73.5 340.5t193.5 234.5t247 78q160 0 266.5 -121.5t106.5 -347.5q0 -177 -76.5 -339t-196 -236.5t-236.5 -74.5q-166 0 -272 120t-106 346zM268 419q0 -156 74.5 -242.5t175.5 -86.5q64 0 123.5 33t113.5 100.5t94 181.5t40 242q0 166 -76 254.5 t-178 88.5q-61 0 -120.5 -33.5t-112 -99.5t-87.5 -165q-47 -135 -47 -273zM475 1264l29 149h147l-29 -149h-147zM831 1264l29 149h145l-27 -149h-147z" />
<glyph unicode="&#xf7;" horiz-adv-x="1366" d="M139 599v126h1088v-126h-1088zM596 253q0 35 25 60t60 25t60 -25t25 -60t-25 -60t-60 -25t-60 25t-25 60zM596 1079q0 35 24.5 60t59.5 25t59.5 -25t24.5 -60q0 -34 -24.5 -59t-59.5 -25t-59.5 25t-24.5 59z" />
<glyph unicode="&#xf8;" d="M82 34l115 132q-63 134 -63 282q0 153 49.5 282t119.5 205.5t155 119t188 42.5q81 0 143.5 -26.5t122.5 -85.5l98 110l66 -58l-115 -130q62 -100 62 -283q0 -181 -76 -337.5t-197 -232.5t-240 -76q-152 0 -264 114l-100 -115zM264 424q0 -70 23 -153l540 618 q-81 101 -195 101q-80 0 -166.5 -63t-144 -208t-57.5 -295zM326 185q88 -96 190 -96q71 0 133 37.5t112.5 103t84.5 158.5q47 128 47 246q0 86 -23 169z" />
<glyph unicode="&#xf9;" horiz-adv-x="1130" d="M115 279q0 60 15 134l132 662h137l-127 -650q-19 -97 -19 -161q0 -62 50 -109.5t119 -47.5q162 0 350 229l144 739h138l-207 -1075h-126l37 199q-184 -221 -368 -221q-121 0 -198 79t-77 222zM412 1497h262l267 -311h-123z" />
<glyph unicode="&#xfa;" horiz-adv-x="1130" d="M115 279q0 60 15 134l132 662h137l-127 -650q-19 -97 -19 -161q0 -62 50 -109.5t119 -47.5q162 0 350 229l144 739h138l-207 -1075h-126l37 199q-184 -221 -368 -221q-121 0 -198 79t-77 222zM531 1186l268 310h260l-403 -310h-125z" />
<glyph unicode="&#xfb;" horiz-adv-x="1130" d="M115 279q0 60 15 134l132 662h137l-127 -650q-19 -97 -19 -161q0 -62 50 -109.5t119 -47.5q162 0 350 229l144 739h138l-207 -1075h-126l37 199q-184 -221 -368 -221q-121 0 -198 79t-77 222zM369 1184l333 316h125l146 -316h-95l-131 190l-280 -190h-98z" />
<glyph unicode="&#xfc;" horiz-adv-x="1130" d="M115 279q0 60 15 134l132 662h137l-127 -650q-19 -97 -19 -161q0 -62 50 -109.5t119 -47.5q162 0 350 229l144 739h138l-207 -1075h-126l37 199q-184 -221 -368 -221q-121 0 -198 79t-77 222zM415 1264l29 149h147l-29 -149h-147zM771 1264l29 149h145l-27 -149h-147z " />
<glyph unicode="&#xfd;" horiz-adv-x="961" d="M-67 -403l23 106q71 -23 110 -23q74 0 133.5 57t139.5 239l-173 1099h127l137 -923l436 923h138l-607 -1240q-130 -266 -330 -266q-59 0 -134 28zM477 1186l268 310h260l-403 -310h-125z" />
<glyph unicode="&#xfe;" horiz-adv-x="1174" d="M21 -431l376 1947h137l-106 -560q71 74 143.5 107.5t156.5 33.5q168 0 265.5 -108t97.5 -328q0 -158 -46 -291t-115.5 -216t-157 -129.5t-194.5 -46.5q-79 0 -147.5 28.5t-166.5 109.5l-107 -547h-136zM294 264q117 -173 276 -173q174 0 290 194q95 160 95 371 q0 169 -70.5 250t-181.5 81q-123 0 -233 -101q-67 -61 -76 -104z" />
<glyph unicode="&#xff;" horiz-adv-x="961" d="M-67 -403l23 106q71 -23 110 -23q74 0 133.5 57t139.5 239l-173 1099h127l137 -923l436 923h138l-607 -1240q-130 -266 -330 -266q-59 0 -134 28zM341 1264l29 149h147l-29 -149h-147zM697 1264l29 149h145l-27 -149h-147z" />
<glyph unicode="&#x131;" horiz-adv-x="555" d="M126 0l208 1075h138l-207 -1075h-139z" />
<glyph unicode="&#x152;" horiz-adv-x="1835" d="M215 566q0 241 90 476q54 141 131 250t185 175t241 66q242 0 380 -221l38 204h683l-24 -120h-532l-106 -541h424l-21 -119h-424l-121 -616h591l-25 -120h-739l27 143q-87 -88 -169.5 -126.5t-181.5 -38.5q-193 0 -320 147t-127 441zM368 490q0 -147 70.5 -265t216.5 -118 q103 0 198.5 61t205.5 208l146 746q-66 144 -146.5 214.5t-187.5 70.5q-60 0 -122.5 -27.5t-116 -80t-103.5 -145.5q-67 -125 -114 -315.5t-47 -348.5z" />
<glyph unicode="&#x153;" horiz-adv-x="1686" d="M137 420q0 326 145.5 501.5t329.5 175.5q95 0 174 -48.5t123 -149.5q144 198 357 198q110 0 186.5 -41.5t120.5 -134t44 -231.5q0 -62 -14 -155h-680q-12 -87 -12 -149q0 -141 69.5 -216t176.5 -75q199 0 308 257l108 -59q-77 -158 -190.5 -236.5t-244.5 -78.5 q-123 0 -212 65q-63 45 -112 141q-78 -107 -160 -156.5t-183 -49.5q-150 0 -242 105.5t-92 336.5zM264 378q0 -140 62 -213t148 -73q49 0 94 21t85 63.5t72 103.5q42 81 66.5 195t24.5 220q0 147 -63 221.5t-152 74.5q-80 0 -158 -67t-128.5 -225.5t-50.5 -320.5zM946 645 h533q8 62 8 99q0 124 -55.5 185.5t-153.5 61.5q-106 0 -194 -80t-138 -266z" />
<glyph unicode="&#x178;" horiz-adv-x="1194" d="M301 1516h149l219 -744l496 744h167l-613 -903l-118 -613h-151l124 636zM561 1584l29 149h147l-29 -149h-147zM917 1584l29 149h145l-27 -149h-147z" />
<glyph unicode="&#x2c6;" horiz-adv-x="682" d="M165 1184l333 316h125l146 -316h-95l-131 190l-280 -190h-98z" />
<glyph unicode="&#x2da;" horiz-adv-x="682" d="M305 1346q0 78 55 133t133 55t133 -55t55 -133q0 -77 -55 -132.5t-130 -55.5q-81 0 -136 55t-55 133zM368 1346q0 -51 36.5 -87.5t85.5 -36.5q54 0 91 36.5t37 87.5q0 52 -37 88.5t-88 36.5q-52 0 -88.5 -36.5t-36.5 -88.5z" />
<glyph unicode="&#x2dc;" horiz-adv-x="682" d="M162 1209q11 127 68.5 189t132.5 62q59 0 143 -55q62 -41 93 -41q23 0 44 18q27 24 48 80h90q-2 -117 -60.5 -185t-126.5 -68q-54 0 -131.5 52t-110.5 52q-31 0 -54.5 -23.5t-35.5 -80.5h-100z" />
<glyph unicode="&#x2000;" horiz-adv-x="977" />
<glyph unicode="&#x2001;" horiz-adv-x="1954" />
<glyph unicode="&#x2002;" horiz-adv-x="977" />
<glyph unicode="&#x2003;" horiz-adv-x="1954" />
<glyph unicode="&#x2004;" horiz-adv-x="651" />
<glyph unicode="&#x2005;" horiz-adv-x="488" />
<glyph unicode="&#x2006;" horiz-adv-x="325" />
<glyph unicode="&#x2007;" horiz-adv-x="325" />
<glyph unicode="&#x2008;" horiz-adv-x="244" />
<glyph unicode="&#x2009;" horiz-adv-x="390" />
<glyph unicode="&#x200a;" horiz-adv-x="108" />
<glyph unicode="&#x2010;" horiz-adv-x="641" d="M137 464l29 147h339l-29 -147h-339z" />
<glyph unicode="&#x2011;" horiz-adv-x="641" d="M137 464l29 147h339l-29 -147h-339z" />
<glyph unicode="&#x2012;" horiz-adv-x="641" d="M137 464l29 147h339l-29 -147h-339z" />
<glyph unicode="&#x2013;" horiz-adv-x="1024" d="M-11 455v129h1057v-129h-1057z" />
<glyph unicode="&#x2014;" horiz-adv-x="2048" d="M-18 456v128h2085v-128h-2085z" />
<glyph unicode="&#x2018;" horiz-adv-x="641" d="M304 992l41 218l189 306l70 -34l-141 -272l86 8l-44 -226h-201z" />
<glyph unicode="&#x2019;" horiz-adv-x="641" d="M309 1028l139 263h-83l43 225h200l-42 -225l-188 -303z" />
<glyph unicode="&#x201a;" horiz-adv-x="641" d="M64 -257l139 257h-83l43 230h200l-42 -225l-188 -302z" />
<glyph unicode="&#x201c;" horiz-adv-x="961" d="M305 992l43 219l187 305l70 -34l-140 -271l85 7l-44 -226h-201zM624 992l43 219l187 305l70 -34l-141 -271l86 7l-44 -226h-201z" />
<glyph unicode="&#x201d;" horiz-adv-x="961" d="M310 1028l139 263h-82l43 225h199l-41 -225l-189 -303zM629 1028l139 263h-83l43 225h199l-41 -225l-188 -303z" />
<glyph unicode="&#x201e;" horiz-adv-x="961" d="M63 -260l142 274l-87 -14l44 230h201l-46 -230l-185 -299zM381 -260l143 274l-87 -14l44 230h201l-46 -230l-185 -299z" />
<glyph unicode="&#x2022;" horiz-adv-x="725" d="M109 718q0 105 74.5 179t178.5 74q105 0 179.5 -74t74.5 -179t-74.5 -179.5t-179.5 -74.5q-104 0 -178.5 74.5t-74.5 179.5z" />
<glyph unicode="&#x2026;" horiz-adv-x="1921" d="M173 0l43 227h202l-44 -227h-201zM809 0l43 227h202l-44 -227h-201zM1445 0l43 227h202l-45 -227h-200z" />
<glyph unicode="&#x202f;" horiz-adv-x="390" />
<glyph unicode="&#x2039;" horiz-adv-x="598" d="M56 535l343 540h155l-352 -557l179 -518h-141z" />
<glyph unicode="&#x203a;" horiz-adv-x="598" d="M50 0l356 561l-183 514h141l184 -532l-345 -543h-153z" />
<glyph unicode="&#x205f;" horiz-adv-x="488" />
<glyph unicode="&#x20ac;" horiz-adv-x="1280" d="M63 586l44 112h100q7 59 18 114h-142l44 112h123q69 268 198 428q156 193 376 193q378 0 418 -421l-136 -32q-16 344 -279 344q-292 0 -429 -512h566l-41 -112h-551q-13 -63 -20 -114h533l-41 -112h-505q-5 -60 -5 -115q0 -384 298 -384q187 0 323 262l125 -52 q-169 -327 -457 -327q-222 0 -334 159q-96 137 -96 365q0 44 3 92h-133z" />
<glyph unicode="&#x2122;" horiz-adv-x="2048" d="M225 1395v121h666v-121h-266v-694h-136v694h-264zM982 701v815h200l206 -651l199 651h196v-815h-124v684l-210 -684h-123l-219 694v-694h-125z" />
<glyph unicode="&#xe000;" horiz-adv-x="1075" d="M0 1075h1075v-1075h-1075v1075z" />
<glyph unicode="&#xfb01;" d="M126 0l185 958h-185l22 117h186q10 49 20 106q32 181 74 237q73 98 211 98q43 0 103 -17l-23 -123q-52 6 -83 6q-52 0 -85 -27q-21 -24 -33.5 -63.5t-45.5 -216.5h189l-21 -117h-193l-185 -958h-136zM681 0l210 1075h136l-207 -1075h-139zM938 1339l36 177h138l-34 -177 h-140z" />
<glyph unicode="&#xfb02;" d="M126 0l185 958h-185l22 117h186q10 49 20 106q32 181 74 237q73 98 211 98q43 0 103 -17l-23 -123q-52 6 -83 6q-52 0 -85 -27q-21 -24 -33.5 -63.5t-45.5 -216.5h189l-21 -117h-193l-185 -958h-136zM683 0l290 1516h137l-290 -1516h-137z" />
<glyph unicode="&#xfb03;" horiz-adv-x="1665" d="M126 0l185 958h-185l22 117h186q10 49 20 106q32 181 74 237q73 98 211 98q43 0 103 -17l-23 -123q-52 6 -83 6q-52 0 -85 -27q-21 -24 -33.5 -63.5t-45.5 -216.5h189l-21 -117h-193l-185 -958h-136zM681 0l185 958h-185l22 117h186q10 49 20 106q32 181 74 237 q73 98 211 98q43 0 103 -17l-23 -123q-52 6 -83 6q-52 0 -85 -27q-21 -24 -33.5 -63.5t-45.5 -216.5h189l-21 -117h-193l-185 -958h-136zM1236 0l210 1075h136l-207 -1075h-139zM1493 1339l36 177h138l-34 -177h-140z" />
<glyph unicode="&#xfb04;" horiz-adv-x="1665" d="M126 0l185 958h-185l22 117h186q10 49 20 106q32 181 74 237q73 98 211 98q43 0 103 -17l-23 -123q-52 6 -83 6q-52 0 -85 -27q-21 -24 -33.5 -63.5t-45.5 -216.5h189l-21 -117h-193l-185 -958h-136zM681 0l185 958h-185l22 117h186q10 49 20 106q32 181 74 237 q73 98 211 98q43 0 103 -17l-23 -123q-52 6 -83 6q-52 0 -85 -27q-21 -24 -33.5 -63.5t-45.5 -216.5h189l-21 -117h-193l-185 -958h-136zM1238 0l290 1516h137l-290 -1516h-137z" />
</font>
</defs>
</svg>
