<?xml version="1.0" standalone="no"?>
<!DOCTYPE svg PUBLIC "-//W3C//DTD SVG 1.1//EN" "http://www.w3.org/Graphics/SVG/1.1/DTD/svg11.dtd" >
<svg xmlns="http://www.w3.org/2000/svg">
<metadata>
This is a custom SVG webfont generated by Font Squirrel.
Copyright   : Design and data by The Monotype Corporation  1993 Microsoft Corporation All rights reserved
</metadata>
<defs>
<font id="NewsGothicMTBold" horiz-adv-x="1174" >
<font-face units-per-em="2048" ascent="1638" descent="-410" />
<missing-glyph horiz-adv-x="640" />
<glyph unicode=" "  horiz-adv-x="640" />
<glyph unicode="&#x09;" horiz-adv-x="640" />
<glyph unicode="&#xa0;" horiz-adv-x="640" />
<glyph unicode="!" horiz-adv-x="748" d="M218 0v329h299v-329h-299zM218 1530h307l-64 -984h-188z" />
<glyph unicode="&#x22;" horiz-adv-x="981" d="M112 1312v248h306v-248l-46 -273h-207zM563 1312v248h306v-248l-46 -273h-207z" />
<glyph unicode="#" horiz-adv-x="1366" d="M77 336v189h209l63 303h-272v189h308l84 383h189l-84 -383h355l82 383h189l-82 -383h170v-189h-206l-63 -303h269v-189h-305l-82 -380h-190l83 380h-359l-78 -380h-191l81 380h-170zM475 526h356l62 302h-355z" />
<glyph unicode="$" horiz-adv-x="1386" d="M105 274l217 151q127 -177 288 -207v433q-168 38 -271.5 110.5t-149.5 170.5t-46 194q0 82 39.5 166.5t112.5 144.5t160 90q51 18 155 33v63h148v-63q130 -25 225.5 -78t198.5 -163l-210 -146q-95 84 -214 128v-375q135 -35 213 -79q127 -71 196.5 -177t69.5 -242 q0 -106 -44.5 -199.5t-122.5 -152.5t-168 -86q-48 -14 -144 -21v-269h-148v269q-122 15 -209 50.5t-165 102.5q-59 50 -131 152zM395 1135q0 -56 40.5 -97.5t174.5 -77.5v355q-114 -19 -164.5 -68.5t-50.5 -111.5zM758 211q108 15 161 70.5t53 130.5q0 65 -47 117.5 t-167 87.5v-406z" />
<glyph unicode="%" horiz-adv-x="1921" d="M39 910q0 152 62 282.5t165 195t225 64.5q117 0 233 -73t237 -73q79 0 186.5 31t161 67t137.5 136h161l-1136 -1967h-170l990 1706q-188 -91 -332 -91q-56 0 -118 16q13 -57 13 -116q0 -231 -126.5 -395.5t-328.5 -164.5q-157 0 -258.5 103.5t-101.5 278.5zM277 878 q0 -83 38 -127t93 -44q49 0 98 40t78.5 133t29.5 209q0 98 -40 144t-102 46q-94 0 -138 -107q-57 -142 -57 -294zM1060 33q0 137 60.5 272t164.5 199.5t226 64.5q166 0 266.5 -103.5t100.5 -280.5q0 -141 -60 -273t-166 -198.5t-236 -66.5q-158 0 -257 103.5t-99 282.5z M1300 -3q0 -83 39.5 -128t93.5 -45q74 0 129 76q77 106 77 293q0 108 -41 156.5t-104 48.5q-54 0 -90 -39q-48 -51 -76 -157.5t-28 -204.5z" />
<glyph unicode="&#x26;" horiz-adv-x="1599" d="M122 395q0 107 43.5 198.5t121.5 162.5q50 46 148 101q-111 214 -111 339q0 150 115 257t303 107q169 0 268 -92.5t99 -227.5q0 -119 -79 -227.5t-261 -227.5q114 -154 278 -318q89 132 160 338l222 -69q-34 -146 -76.5 -247t-104.5 -193q119 -81 229 -81h11l26 -233 q-60 -7 -90 -7q-85 0 -167.5 30.5t-188.5 101.5q-127 -72 -231.5 -104.5t-207.5 -32.5q-182 0 -322 91q-185 118 -185 334zM409 441q0 -83 75.5 -155t171.5 -72q112 0 212 69q-162 172 -306 367q-153 -89 -153 -209zM554 1197q0 -90 86 -225q139 76 190.5 136.5t51.5 121.5 q0 60 -43 101.5t-106 41.5q-78 0 -128.5 -50.5t-50.5 -125.5z" />
<glyph unicode="'" horiz-adv-x="492" d="M92 1312v248h306v-248l-46 -273h-207z" />
<glyph unicode="(" horiz-adv-x="748" d="M44 569q0 312 133 548.5t405 435.5l130 -138q-110 -108 -199 -249t-128 -289t-39 -320q0 -165 42.5 -309.5t112.5 -255.5q50 -80 211 -273l-107 -141q-274 183 -417.5 425t-143.5 566z" />
<glyph unicode=")" horiz-adv-x="748" d="M24 -289q124 142 184.5 232t104 192t62 197.5t18.5 215.5q0 205 -48.5 360.5t-133.5 284.5q-61 92 -187 223l129 137q180 -130 270 -234q130 -150 201 -340.5t71 -411.5q0 -227 -72 -414.5t-212 -344.5q-97 -108 -269 -232z" />
<glyph unicode="*" horiz-adv-x="961" d="M41 1010v228l387 -86l-272 290l200 111l122 -371l126 371l195 -111l-270 -290l384 86v-228l-384 80l270 -283l-195 -117l-126 374l-122 -374l-200 117l272 283z" />
<glyph unicode="+" horiz-adv-x="1366" d="M125 568v215h449v451h215v-451h451v-215h-451v-447h-215v447h-449z" />
<glyph unicode="," horiz-adv-x="641" d="M166 0v333h300v-333l-183 -329h-106l162 329h-173z" />
<glyph unicode="-" horiz-adv-x="748" d="M109 422v255h529v-255h-529z" />
<glyph unicode="." horiz-adv-x="641" d="M169 0v331h300v-331h-300z" />
<glyph unicode="/" horiz-adv-x="1194" d="M99 0l765 1530h232l-765 -1530h-232z" />
<glyph unicode="0" horiz-adv-x="1280" d="M72 754q0 438 151.5 622t399.5 184q272 0 426 -180.5t154 -612.5q0 -433 -151 -615t-404 -182q-167 0 -265 52q-149 79 -220 226q-91 188 -91 506zM369 688q0 -264 80 -368t190 -104q70 0 139 52.5t100 155t31 373.5q0 304 -80 409.5t-189 105.5q-75 0 -141.5 -54 t-98 -162.5t-31.5 -407.5z" />
<glyph unicode="1" horiz-adv-x="1280" d="M194 0v221h384v1036q-168 -64 -384 -82v203q145 32 238 65.5t194 86.5h218v-1309h303v-221h-953z" />
<glyph unicode="2" horiz-adv-x="1280" d="M89 0v48q0 109 46 210t153 219q59 65 275 254q162 143 199 184q54 58 78 111.5t24 100.5q0 82 -63.5 142t-162.5 60q-95 0 -170.5 -64t-116.5 -203l-230 61q25 117 80 200q79 117 198.5 177t255.5 60q222 0 362 -125.5t140 -292.5q0 -91 -40 -180t-116 -172 q-56 -61 -216.5 -196t-226.5 -201.5t-123 -142.5h717v-250h-1063z" />
<glyph unicode="3" horiz-adv-x="1280" d="M98 264l219 137q95 -105 174 -151t157 -46q95 0 160 62.5t65 147.5q0 109 -91.5 183.5t-320.5 74.5h-93v263h70q243 0 346 70q73 50 73 131q0 68 -63 125t-150 57q-150 0 -296 -156l-186 178q143 123 255 171.5t244 48.5q239 0 375 -142q107 -114 107 -254 q0 -114 -79.5 -208t-228.5 -133q164 -80 246 -189t82 -246q0 -173 -139.5 -295.5t-386.5 -122.5q-128 0 -228.5 39t-181.5 108q-56 48 -129 147z" />
<glyph unicode="4" horiz-adv-x="1280" d="M42 304v250l611 976h365v-976h217v-250h-217v-304h-264v304h-712zM338 554h416v671z" />
<glyph unicode="5" horiz-adv-x="1280" d="M103 224l257 135q102 -148 239 -148q108 0 184.5 82.5t76.5 219.5q0 129 -68.5 205t-159.5 76q-66 0 -122.5 -29.5t-122.5 -101.5l-244 47l80 820h837v-244h-609l-35 -371q77 50 155.5 75t157.5 25q204 0 314 -151.5t110 -348.5q0 -243 -149 -394t-387 -151 q-160 0 -281 62t-233 192z" />
<glyph unicode="6" horiz-adv-x="1280" d="M86 695q0 252 92 462.5t239 306.5t300 96q138 0 264 -57q98 -44 190 -139l-170 -216q-63 80 -126 115t-141 35q-106 0 -194 -68t-139 -205q-33 -87 -42 -222q96 83 195 124.5t201 41.5q166 0 309 -126t143 -348q0 -140 -68 -264t-192.5 -192.5t-268.5 -68.5 q-223 0 -385 151q-207 192 -207 574zM382 489q34 -141 111.5 -208t180.5 -67q105 0 173.5 72t68.5 187q0 110 -64 177.5t-163 67.5q-86 0 -158.5 -51.5t-148.5 -177.5z" />
<glyph unicode="7" horiz-adv-x="1280" d="M112 1269v261h1036v-261l-598 -1269h-306l597 1269h-729z" />
<glyph unicode="8" horiz-adv-x="1280" d="M59 406q0 134 75 229t218 166q-126 66 -185.5 151t-59.5 208q0 166 122 270q155 130 410 130q200 0 341 -84q185 -110 185 -311q0 -118 -64.5 -208.5t-198.5 -166.5q156 -60 233.5 -162.5t77.5 -223.5q0 -179 -149 -306.5t-431 -127.5q-161 0 -296 51.5t-206.5 156.5 t-71.5 228zM355 424q0 -93 69.5 -154t209.5 -61q137 0 211.5 63t74.5 149q0 79 -55 143t-230 131q-166 -62 -223 -128t-57 -143zM402 1148q0 -71 49 -129.5t174 -119.5q134 46 190.5 112.5t56.5 134.5q0 77 -60 131t-165 54q-121 0 -183 -53t-62 -130z" />
<glyph unicode="9" horiz-adv-x="1280" d="M71 1042q0 141 70 263t198 188.5t268 66.5q210 0 375 -151q210 -192 210 -581q0 -198 -56.5 -368.5t-139.5 -271.5t-194.5 -159.5t-251.5 -58.5q-262 0 -447 204l172 219q119 -153 269 -153q93 0 181.5 60t144.5 188q39 92 53 251q-98 -85 -196.5 -127.5t-197.5 -42.5 q-192 0 -325 135.5t-133 337.5zM365 1068q0 -112 63.5 -179t157.5 -67q88 0 162.5 54t149.5 174q-38 142 -116 208t-176 66q-106 0 -173.5 -69.5t-67.5 -186.5z" />
<glyph unicode=":" horiz-adv-x="748" d="M221 0v333h303v-333h-303zM221 761v329h303v-329h-303z" />
<glyph unicode=";" horiz-adv-x="748" d="M220 0v330h300v-330l-193 -328h-107l164 328h-164zM220 762v328h300v-328h-300z" />
<glyph unicode="&#x3c;" horiz-adv-x="1366" d="M126 579v194l1112 465v-233l-819 -328l819 -329v-233z" />
<glyph unicode="=" horiz-adv-x="1366" d="M126 331v216h1112v-216h-1112zM126 809v215h1112v-215h-1112z" />
<glyph unicode="&#x3e;" horiz-adv-x="1366" d="M126 115v233l819 328l-819 329v233l1112 -464v-194z" />
<glyph unicode="?" horiz-adv-x="961" d="M100 1321q106 134 197 186.5t197 52.5q185 0 292 -137q82 -104 82 -229q0 -202 -212 -382q-78 -66 -105 -122.5t-30 -155.5h-234q8 192 39 269t141.5 190.5t110.5 195.5q0 48 -32 82t-74 34q-68 0 -168 -92q-15 -14 -25 -22zM255 0v328h298v-328h-298z" />
<glyph unicode="@" horiz-adv-x="2005" d="M61 550q0 283 131.5 523t364 363.5t530.5 123.5q250 0 446 -97t300 -277t104 -390q0 -306 -197.5 -517t-458.5 -211q-89 0 -130.5 29t-56.5 86q-118 -115 -275 -115q-164 0 -273 115t-109 313q0 222 128 415q161 241 412 241q90 0 156.5 -33.5t108.5 -101.5l25 110h264 l-151 -717q-14 -68 -14 -88q0 -24 11.5 -36.5t27.5 -12.5q36 0 96 38t116.5 106.5t90.5 147.5q49 114 49 234q0 246 -178 411.5t-498 165.5q-269 0 -457 -109t-284.5 -310t-96.5 -417q0 -214 106.5 -387t299 -252t438.5 -79q269 0 451 80q142 63 239 185h213 q-103 -209 -327.5 -329t-557.5 -120t-572.5 112.5t-355.5 329.5t-116 470zM696 498q0 -127 51.5 -186.5t127.5 -59.5q143 0 227.5 159t84.5 330q0 112 -52.5 171.5t-132.5 59.5q-86 0 -159 -66t-110 -189.5t-37 -218.5z" />
<glyph unicode="A" horiz-adv-x="1386" d="M37 0l496 1530h319l498 -1530h-296l-116 359h-489l-116 -359h-296zM518 582h348l-173 534z" />
<glyph unicode="B" horiz-adv-x="1473" d="M181 0v1530h652q232 0 345 -71q162 -102 162 -294q0 -144 -97 -243q-65 -66 -190 -110q107 -32 163 -74q78 -58 121 -143t43 -174q0 -104 -54 -201.5t-172 -158.5t-300 -61h-673zM480 235h241q187 0 266 64.5t79 169.5q0 97 -72 161t-210 64h-304v-459zM480 930h321 q103 0 179 64q49 41 49 123q0 81 -57 131t-179 50h-313v-368z" />
<glyph unicode="C" horiz-adv-x="1409" d="M97 738q0 249 84.5 440t245.5 286.5t339 95.5q131 0 256.5 -58t207.5 -164q57 -74 91 -196l-280 -80q-30 124 -106.5 187.5t-183.5 63.5q-160 0 -249 -155t-89 -405q0 -158 41 -277t113 -175.5t156 -56.5q126 0 225 91q70 63 110 182l277 -79q-32 -129 -81 -205 q-79 -123 -204.5 -193t-290.5 -70q-176 0 -336 88.5t-243 264.5t-83 415z" />
<glyph unicode="D" horiz-adv-x="1516" d="M183 0v1530h556q198 0 354 -96.5t237.5 -273t81.5 -382.5q0 -205 -70.5 -369.5t-180.5 -258.5q-79 -67 -205 -108.5t-266 -41.5h-507zM488 268h208q111 0 197.5 59.5t133.5 156.5q68 138 68 301q0 222 -129 354.5t-331 132.5h-147v-1004z" />
<glyph unicode="E" horiz-adv-x="1300" d="M182 0v1530h1026v-266h-725v-337h442v-227h-442v-436h725v-264h-1026z" />
<glyph unicode="F" horiz-adv-x="1194" d="M181 0v1530h939v-264h-636v-400h367v-264h-367v-602h-303z" />
<glyph unicode="G" horiz-adv-x="1536" d="M93 735q0 296 94 475.5t257.5 264.5t349.5 85q170 0 299.5 -66t208.5 -180q51 -73 86 -202l-239 -82q-41 124 -105 186q-92 88 -238 88q-173 0 -284.5 -115.5t-111.5 -416.5q0 -211 46 -321t137 -168t195 -58q78 0 153.5 32t122 78.5t70 93t40.5 124.5h-400v229h642v-782 h-242v187q-91 -100 -185 -148q-131 -69 -281 -69q-154 0 -295 76t-230.5 240.5t-89.5 448.5z" />
<glyph unicode="H" horiz-adv-x="1536" d="M180 0v1530h299v-604h576v604h302v-1530h-302v662h-576v-662h-299z" />
<glyph unicode="I" horiz-adv-x="705" d="M202 0v1530h300v-1530h-300z" />
<glyph unicode="J" horiz-adv-x="1110" d="M4 219l195 173q77 -97 126.5 -128.5t99.5 -31.5q74 0 119 53q59 71 59 182v1063h299v-1063q0 -253 -167 -389q-130 -108 -293 -108q-236 0 -438 249z" />
<glyph unicode="K" horiz-adv-x="1450" d="M183 0v1530h301v-677l551 677h331l-478 -591l514 -939h-294l-395 723l-229 -286v-437h-301z" />
<glyph unicode="L" d="M175 0v1530h299v-1266h632v-264h-931z" />
<glyph unicode="M" horiz-adv-x="1812" d="M174 0v1530h478l254 -948l256 948h478v-1530h-287v1362l-368 -1362h-159l-368 1362v-1362h-284z" />
<glyph unicode="N" horiz-adv-x="1599" d="M178 0v1530h318l628 -1027v1027h298v-1530h-298l-645 1067v-1067h-301z" />
<glyph unicode="O" horiz-adv-x="1536" d="M95 764q0 234 76 420q41 103 125.5 192t197 136.5t244.5 47.5q216 0 348 -72q173 -94 264 -270t91 -462q0 -388 -183 -587t-484 -199q-304 0 -491.5 202.5t-187.5 591.5zM411 764q0 -281 102.5 -404t262.5 -123q152 0 253 122.5t101 401.5q0 312 -123 439q-95 98 -239 98 q-155 0 -256 -124t-101 -410z" />
<glyph unicode="P" horiz-adv-x="1430" d="M178 0v1530h484q259 0 386.5 -42t206 -146.5t78.5 -255.5q0 -117 -45 -216q-35 -75 -106.5 -133t-143.5 -87q-122 -50 -288 -50h-268v-600h-304zM482 850h246q138 0 230 76q61 50 61 144q0 87 -65 141t-218 54h-254v-415z" />
<glyph unicode="Q" horiz-adv-x="1536" d="M95 770q0 277 88.5 448.5t250.5 266.5q127 75 323 75q207 0 340 -77q166 -96 255 -273.5t89 -449.5q0 -167 -38 -307q-28 -106 -74.5 -183t-120.5 -143t-144.5 -98t-171.5 -47q22 -100 89 -146.5t227 -46.5q46 0 93 4v-191h-139q-171 0 -284.5 32.5t-169 84t-81.5 115 t-34 166.5q-136 30 -232 105q-137 107 -201.5 264.5t-64.5 400.5zM410 773q0 -317 129 -443q97 -94 233 -94q88 0 175 53t133 163t46 303q0 296 -101 418.5t-261 122.5q-152 0 -253 -121.5t-101 -401.5z" />
<glyph unicode="R" horiz-adv-x="1430" d="M185 0v1530h413q333 0 460.5 -50t198.5 -165t71 -264q0 -137 -64 -226.5t-222 -153.5l275 -671h-298l-256 615h-276v-615h-302zM487 851h241q132 0 225 75q61 50 61 139q0 85 -68 141.5t-218 56.5h-241v-412z" />
<glyph unicode="S" horiz-adv-x="1343" d="M98 323l269 105q76 -117 149.5 -163t173.5 -46q120 0 187 59.5t67 140.5q0 71 -53 125q-54 54 -241 104q-255 67 -365 164q-137 122 -137 302q0 193 137 319.5t376 126.5q136 0 242.5 -45.5t180.5 -116.5q48 -47 96 -129l-252 -103q-64 91 -131 133t-149 42 q-101 0 -161.5 -56.5t-60.5 -136.5q0 -64 50 -110q49 -46 246 -95t298.5 -114t152 -169t50.5 -214q0 -116 -65 -233t-193 -180t-294 -63q-157 0 -272.5 52.5t-195.5 141.5q-52 57 -105 159z" />
<glyph unicode="T" horiz-adv-x="1300" d="M71 1267v263h1160v-263h-431v-1267h-300v1267h-429z" />
<glyph unicode="U" horiz-adv-x="1556" d="M171 544v986h302v-934q0 -175 81 -262t220 -87q89 0 158 35t110.5 114t41.5 200v934h303v-978q0 -280 -153 -431t-448 -151q-170 0 -317 54q-78 29 -130 76q-72 66 -120 168.5t-48 275.5z" />
<glyph unicode="V" horiz-adv-x="1280" d="M28 1530h293l319 -1052l323 1052h289l-466 -1530h-291z" />
<glyph unicode="W" horiz-adv-x="1812" d="M29 1530h288l208 -876l210 876h343l211 -883l206 883h289l-362 -1530h-236l-277 1168l-282 -1168h-235z" />
<glyph unicode="X" horiz-adv-x="1386" d="M68 0l470 800l-429 730h299l280 -474l279 474h299l-427 -730l468 -800h-300l-319 543l-317 -543h-303z" />
<glyph unicode="Y" horiz-adv-x="1280" d="M50 1530h314l273 -531l270 531h314l-433 -848v-682h-303v682z" />
<glyph unicode="Z" horiz-adv-x="1280" d="M64 0v205l738 1062h-701v263h1085v-235l-712 -1031h730v-264h-1140z" />
<glyph unicode="[" horiz-adv-x="748" d="M124 -406v1936h554v-171h-255v-1592h255v-173h-554z" />
<glyph unicode="\" horiz-adv-x="1194" d="M99 1530h232l764 -1530h-232z" />
<glyph unicode="]" horiz-adv-x="748" d="M58 -231h256v1590h-256v171h555v-1934h-555v173z" />
<glyph unicode="^" horiz-adv-x="1194" d="M115 731l376 799h223l366 -799h-284l-198 490l-197 -490h-286z" />
<glyph unicode="_" horiz-adv-x="1024" d="M-12 -154h1048v-102h-1048v102z" />
<glyph unicode="`" horiz-adv-x="682" d="M-53 1482h329l268 -314h-203z" />
<glyph unicode="a" horiz-adv-x="1153" d="M104 283q0 86 44 163t129 134.5t214 92.5q97 26 261 44q0 69 -12 100q-18 48 -63 75t-111 27q-159 0 -267 -145l-164 138q81 96 194 146.5t242 50.5q134 0 236 -48q74 -36 128.5 -119.5t54.5 -209.5v-508q0 -48 12 -116t26 -108h-241q-17 55 -26 112q-74 -65 -153.5 -98 t-164.5 -33q-148 0 -243.5 89.5t-95.5 212.5zM355 305q0 -60 39.5 -99t100.5 -39q52 0 116.5 30.5t140.5 90.5v273q-239 -45 -328 -123q-69 -59 -69 -133z" />
<glyph unicode="b" horiz-adv-x="1260" d="M168 0v1553h275v-595q72 76 144.5 113.5t157.5 37.5q109 0 212 -68.5t153 -204t50 -280.5q0 -152 -43 -281q-29 -86 -81.5 -148.5t-127.5 -103.5t-162 -41q-75 0 -151 36.5t-152 109.5v-128h-275zM443 324q48 -57 98 -85.5t101 -28.5q92 0 154.5 80t62.5 275 q0 163 -62 239.5t-150 76.5q-54 0 -105 -28t-99 -85v-444z" />
<glyph unicode="c" horiz-adv-x="1087" d="M97 541q0 254 147 411t360 157q103 0 178.5 -37t132.5 -103q40 -46 86 -139l-234 -62q-39 65 -79.5 93t-92.5 28q-80 0 -137.5 -73t-57.5 -234q0 -125 31 -225q21 -72 68 -109.5t105 -37.5q62 0 113.5 45t80.5 145l216 -107q-41 -100 -79 -150q-59 -77 -142.5 -119 t-198.5 -42q-246 0 -386 190q-111 152 -111 369z" />
<glyph unicode="d" horiz-adv-x="1260" d="M101 542q0 137 38.5 247.5t93 176.5t126 104.5t157.5 38.5q84 0 158 -36t139 -109v589h276v-1553h-276v126q-68 -72 -143 -108t-157 -36q-163 0 -276 133q-136 162 -136 427zM407 536q0 -169 63.5 -248t151.5 -79q50 0 97.5 26t93.5 78v458q-49 53 -97.5 79.5t-96.5 26.5 q-90 0 -151 -77t-61 -264z" />
<glyph unicode="e" d="M101 558q0 252 142.5 401.5t364.5 149.5q217 0 348 -136.5t131 -381.5q0 -32 -3 -94h-692q5 -148 69 -220t161 -72q74 0 126 38.5t90 113.5l225 -95q-38 -71 -70 -109q-50 -59 -111 -97t-126 -56t-136 -18q-138 0 -262.5 70.5t-190.5 205t-66 300.5zM391 662h447 q-6 125 -70 192t-157 67q-89 0 -150.5 -65.5t-69.5 -193.5z" />
<glyph unicode="f" horiz-adv-x="705" d="M56 892v198h125q8 170 33.5 249.5t77.5 128.5q39 38 110.5 61.5t146.5 23.5h105v-194h-46q-81 0 -115.5 -30t-34.5 -82v-157h165v-198h-165v-892h-277v892h-125z" />
<glyph unicode="g" d="M57 -155q0 79 46.5 134.5t152.5 83.5q-68 34 -100 76t-32 100q0 57 36.5 104t110.5 74q-85 58 -128 136.5t-43 177.5q0 159 106.5 268.5t359.5 109.5q97 0 174 -17.5t135 -53.5q75 56 143.5 79t109.5 23h26v-182h-52q-65 0 -123 -31q52 -84 52 -194q0 -164 -117.5 -270.5 t-334.5 -106.5q-68 0 -150 10q-36 -19 -54 -41.5t-18 -47.5q0 -34 30 -56q29 -23 113 -26l283 -10q181 -6 266 -82q84 -76 84 -198q0 -151 -122.5 -247.5t-425.5 -96.5q-185 0 -329 44q-97 30 -148 93.5t-51 146.5zM296 -113q0 -54 53 -89q77 -51 264 -51q175 0 247 48 q49 32 49 82q0 47 -41 76q-41 28 -193 34.5t-278 26.5q-50 -23 -75.5 -55t-25.5 -72zM359 733q0 -83 60.5 -143t146.5 -60q87 0 147.5 60t60.5 143t-60.5 143t-143.5 60q-90 0 -150.5 -59.5t-60.5 -143.5z" />
<glyph unicode="h" horiz-adv-x="1217" d="M174 0v1553h276v-611q97 84 193.5 125.5t191.5 41.5q114 0 168 -62q75 -83 75 -215v-832h-276v765q0 61 -27 91t-71 30q-49 0 -112.5 -34t-141.5 -103v-749h-276z" />
<glyph unicode="i" horiz-adv-x="662" d="M194 0v1090h274v-1090h-274zM194 1278v275h274v-275h-274z" />
<glyph unicode="j" horiz-adv-x="662" d="M10 -243q123 3 165.5 40.5t42.5 116.5v1176h278v-1215q0 -93 -36.5 -161t-119.5 -110.5t-204 -42.5h-126v196zM218 1272v281h278v-281h-278z" />
<glyph unicode="k" d="M165 0v1553h279v-914l360 451h285l-346 -440l383 -650h-261l-271 460l-150 -189v-271h-279z" />
<glyph unicode="l" horiz-adv-x="682" d="M204 0v1553h276v-1553h-276z" />
<glyph unicode="m" horiz-adv-x="1878" d="M169 0v1090h277v-214q118 136 203.5 184.5t177.5 48.5q108 0 167.5 -53t87.5 -190q145 159 219 201t172 42q86 0 136.5 -30.5t83.5 -94.5q45 -85 45 -246v-738h-275v694q0 102 -34.5 143.5t-94.5 41.5q-49 0 -101.5 -33t-141.5 -138v-708h-275v682q0 111 -36.5 158 t-86.5 47q-60 0 -121.5 -44.5t-125.5 -134.5v-708h-277z" />
<glyph unicode="n" horiz-adv-x="1217" d="M168 0v1090h276v-149q86 82 177 125t201 43q124 0 178 -60q72 -80 72 -219v-830h-274v760q0 67 -26 95.5t-74 28.5q-51 0 -108 -28.5t-146 -110.5v-745h-276z" />
<glyph unicode="o" d="M93 550q0 268 133 413.5t335 145.5q243 0 381.5 -145t138.5 -412q0 -269 -140 -420t-350 -151q-201 0 -349.5 143t-148.5 426zM369 544q0 -195 64 -278t154 -83q63 0 115 40.5t75 115.5q33 105 33 237q0 99 -27.5 184.5t-79.5 126t-114 40.5q-94 0 -148 -73 q-72 -97 -72 -310z" />
<glyph unicode="p" horiz-adv-x="1260" d="M176 -439v1529h279v-114q71 67 142.5 100t143.5 33q93 0 198 -66t163 -198t58 -293q0 -261 -131.5 -415.5t-282.5 -154.5q-64 0 -128 29.5t-163 114.5v-565h-279zM455 316q58 -42 112 -63t103 -21q88 0 151 77.5t63 251.5q0 154 -64.5 231.5t-153.5 77.5 q-44 0 -96.5 -20.5t-114.5 -61.5v-472z" />
<glyph unicode="q" horiz-adv-x="1237" d="M93 558q0 163 61 292.5t183 202.5q92 56 179 56q68 0 139.5 -34t146.5 -103v118h274v-1529h-274v566q-80 -72 -156 -108.5t-147 -36.5q-90 0 -188.5 68.5t-158 206.5t-59.5 301zM367 549q0 -158 66.5 -238.5t158.5 -80.5q45 0 97.5 21t112.5 63v472q-68 47 -116 65 t-96 18q-92 0 -157.5 -78.5t-65.5 -241.5z" />
<glyph unicode="r" horiz-adv-x="874" d="M170 0v1090h278v-261q93 156 175 215.5t179 64.5v-280h-25q-102 0 -192 -62.5t-137 -178.5v-588h-278z" />
<glyph unicode="s" horiz-adv-x="1087" d="M81 180l167 116q82 -62 147 -87t135 -25q91 0 134.5 33.5t43.5 76.5q0 40 -39 74t-169 56q-215 38 -304 129t-89 217q0 133 116 236t303 103q107 0 202.5 -32t206.5 -122l-160 -134q-115 69 -158.5 84.5t-87.5 15.5q-74 0 -119 -39t-45 -88q0 -44 37 -78t183 -65 q202 -42 282 -102q112 -82 112 -218q0 -145 -116 -247t-336 -102q-138 0 -241.5 46.5t-204.5 151.5z" />
<glyph unicode="t" horiz-adv-x="748" d="M44 892v198h167v352h276v-352h192v-198h-192v-582q0 -47 34.5 -73t157.5 -29v-225q-92 -2 -97 -2q-129 0 -204.5 34t-121 114t-45.5 181v582h-167z" />
<glyph unicode="u" horiz-adv-x="1217" d="M143 287v803h279v-748q0 -57 32 -90.5t81 -33.5q51 0 104 29t129 110v733h277v-1090h-277v164q-94 -95 -191.5 -138.5t-170.5 -43.5q-67 0 -126.5 31.5t-98 101.5t-38.5 172z" />
<glyph unicode="v" horiz-adv-x="1024" d="M61 1090h257l193 -724l195 724h258l-293 -1090h-319z" />
<glyph unicode="w" horiz-adv-x="1556" d="M60 1090h246l186 -612l184 612h205l186 -619l184 619h246l-326 -1090h-193l-199 657l-200 -657h-193z" />
<glyph unicode="x" horiz-adv-x="1024" d="M59 0l313 555l-304 535h287l158 -278l159 278h283l-300 -535l309 -555h-280l-171 299l-169 -299h-285z" />
<glyph unicode="y" horiz-adv-x="1067" d="M70 1090h260l213 -699l212 699h257l-308 -1024q-56 -185 -108.5 -277t-127.5 -151q-41 -33 -115 -55t-175 -22h-99v191h54q113 0 184.5 55t95.5 159z" />
<glyph unicode="z" horiz-adv-x="1004" d="M60 0v224l551 644h-505v222h827v-222l-547 -644h547v-224h-873z" />
<glyph unicode="{" horiz-adv-x="788" d="M60 690q87 4 131 35t66 99t22 221v42q0 169 22 242t66.5 115t131.5 68q60 18 192 18h53v-239q-107 0 -140.5 -11.5t-48.5 -38t-15 -87.5q0 -62 -9 -238q-5 -100 -26 -162t-53.5 -102t-99.5 -83q59 -34 96.5 -79.5t57.5 -110t26 -174.5l7 -212q0 -66 17 -93.5t51.5 -39.5 t136.5 -12v-239h-53q-135 0 -207 21t-121.5 71.5t-66.5 124t-17 230.5v35q0 158 -22 225t-65.5 98t-131.5 36v240z" />
<glyph unicode="|" horiz-adv-x="1194" d="M489 -439v1969h217v-1969h-217z" />
<glyph unicode="}" horiz-adv-x="788" d="M45 1291v239h53q135 0 207 -21t121 -71.5t66.5 -124t17.5 -230.5q0 -184 15 -240q22 -80 67 -114.5t137 -38.5v-240q-87 -5 -131 -36t-66 -99t-22 -221v-42q0 -169 -21.5 -242t-66.5 -115t-132 -68q-60 -18 -192 -18h-53v239q101 0 136 12t51.5 39.5t17 86.5t8.5 227 q5 108 26 171t58 107.5t95 77.5q-75 48 -109 96q-46 64 -63 165q-10 61 -16 308q-2 77 -14 101.5t-44.5 38t-145.5 13.5z" />
<glyph unicode="~" horiz-adv-x="1343" d="M117 547v224q159 137 316 137q50 0 106 -15.5t161 -66.5t150.5 -64.5t83.5 -13.5q127 0 293 148v-223q-170 -140 -301 -140q-61 0 -117 16t-188 80.5t-201 64.5q-144 0 -303 -147z" />
<glyph unicode="&#xa1;" horiz-adv-x="748" d="M212 -208l64 985h192l56 -985h-312zM223 993v328h301v-328h-301z" />
<glyph unicode="&#xa2;" horiz-adv-x="961" d="M82 516q0 240 128 377t317 137q54 0 121 -20l175 538h90l-187 -573q63 -44 99 -90t64 -119l-168 -68q-23 53 -56 89l-196 -602q26 -3 38 -3q65 0 118 38.5t84 118.5l152 -77q-64 -144 -164 -212.5t-217 -68.5q-34 0 -74 9l-133 -407h-91l143 438q-118 64 -180.5 195.5 t-62.5 299.5zM303 525q0 -119 21 -181.5t68 -115.5l197 604q-34 8 -61 8q-64 0 -120 -35t-80.5 -96.5t-24.5 -183.5z" />
<glyph unicode="&#xa3;" horiz-adv-x="1280" d="M36 197q0 102 66 168t169 66q63 0 185 -41q1 24 1 36q0 116 -49 282h-290v199h240q-35 116 -35 223q0 200 113 315t305 115q123 0 205.5 -54t128.5 -153q30 -65 43 -177l-242 -18q-7 117 -46 161t-104 44t-106.5 -44t-41.5 -119q0 -107 53 -293h304v-199h-262 q13 -81 13 -149q0 -137 -39 -247q193 -89 252 -89q42 0 72.5 35.5t33.5 111.5h229q-2 -125 -41.5 -211.5t-122 -137.5t-170.5 -51q-145 0 -352 144q-75 -80 -136.5 -112t-134.5 -32q-109 0 -175 64.5t-66 162.5zM174 202q0 -36 24.5 -59.5t62.5 -23.5q82 0 147 90 q-95 71 -159 71q-32 0 -53.5 -22t-21.5 -56z" />
<glyph unicode="&#xa4;" horiz-adv-x="1430" d="M160 294l131 130q-73 119 -73 254q0 130 74 249l-132 133l140 142l133 -133q62 37 124.5 55.5t126.5 18.5q66 0 129.5 -18.5t124.5 -55.5l132 133l140 -142l-131 -133q73 -120 73 -249q0 -135 -73 -254l131 -130l-140 -141l-132 130q-60 -37 -123.5 -56t-131.5 -19 q-65 0 -127.5 18.5t-122.5 55.5l-130 -129zM418 675q0 -110 78 -188.5t189 -78.5t189.5 78.5t78.5 188.5q0 111 -78.5 189.5t-189.5 78.5t-189 -78.5t-78 -189.5z" />
<glyph unicode="&#xa5;" horiz-adv-x="1280" d="M50 413v148h435v118l-88 172h-347v148h272l-272 531h314l273 -531l270 531h314l-271 -531h271v-148h-346l-87 -172v-118h433v-148h-433v-413h-303v413h-435z" />
<glyph unicode="&#xa6;" horiz-adv-x="1194" d="M489 292h217v-731h-217v731zM489 800v730h217v-730h-217z" />
<glyph unicode="&#xa7;" horiz-adv-x="1067" d="M78 552q0 135 60.5 230t166.5 157q-86 80 -123.5 150.5t-37.5 144.5q0 141 102.5 233.5t296.5 92.5q131 0 215.5 -44.5t134.5 -127.5q34 -55 56 -153l-255 -37q-17 84 -61.5 124t-99.5 40q-51 0 -83.5 -30t-32.5 -69t34 -80q46 -54 231 -184q147 -104 196.5 -150.5 t82 -116.5t32.5 -164q0 -127 -54 -214.5t-173 -161.5q86 -83 122 -153.5t36 -150.5q0 -139 -104 -233t-289 -94q-169 0 -274.5 86.5t-135.5 243.5l254 39q17 -86 60 -126t98 -40q53 0 87.5 31t34.5 69q0 40 -35 83q-36 43 -197.5 157t-220.5 167t-87 111q-37 74 -37 170z M324 615q0 -67 42.5 -118.5t261.5 -196.5q116 103 116 216q0 48 -23.5 90.5t-75 83.5t-203.5 142q-118 -105 -118 -217z" />
<glyph unicode="&#xa8;" horiz-adv-x="682" d="M-12 1212v216h219v-216h-219zM471 1212v216h217v-216h-217z" />
<glyph unicode="&#xa9;" horiz-adv-x="1516" d="M-9 794q0 201 103.5 385t284.5 282.5t378 98.5t378 -98.5t284.5 -282.5t103.5 -385q0 -199 -101.5 -381t-283 -283.5t-381.5 -101.5t-381.5 101.5t-283 283t-101.5 381.5zM142 794q0 -160 81.5 -306t227.5 -227.5t306 -81.5t306 81.5t227.5 227.5t81.5 306q0 161 -83 309 t-228.5 227t-303.5 79t-303.5 -79t-228.5 -226.5t-83 -309.5zM381 788q0 205 106.5 317.5t282.5 112.5q123 0 205.5 -58t128.5 -184l-162 -39q-28 73 -72.5 106t-105.5 33q-91 0 -149 -68.5t-58 -214.5t57 -215t137 -69q67 0 116 40t76 132l161 -55q-38 -126 -126 -193 t-210 -67q-171 0 -279 112t-108 310z" />
<glyph unicode="&#xaa;" horiz-adv-x="768" d="M82 1033q0 67 46 131t141 103q65 27 230 48q-2 68 -31.5 97.5t-88.5 29.5q-51 0 -90 -20.5t-83 -71.5l-103 87q56 62 121.5 92.5t157.5 30.5q137 0 203 -64q66 -65 66 -181v-341q0 -50 24 -121h-154q-19 44 -22 73q-48 -43 -99.5 -64.5t-105.5 -21.5q-90 0 -151 58 t-61 135zM243 1047q0 -37 25.5 -62.5t63.5 -25.5q34 0 75.5 20.5t91.5 60.5v174q-154 -30 -205 -74.5t-51 -92.5z" />
<glyph unicode="&#xab;" horiz-adv-x="1067" d="M47 543l238 547h291l-235 -547l235 -543h-291zM496 543l237 547h288l-237 -547l237 -543h-288z" />
<glyph unicode="&#xac;" horiz-adv-x="1366" d="M125 818v215h1114v-702h-214v487h-900z" />
<glyph unicode="&#xad;" horiz-adv-x="748" d="M109 422v255h529v-255h-529z" />
<glyph unicode="&#xae;" horiz-adv-x="1516" d="M-9 794q0 201 103.5 385t284.5 282.5t378 98.5t378 -98.5t284.5 -282.5t103.5 -385q0 -200 -101.5 -381.5t-283 -283t-381.5 -101.5t-381.5 101.5t-283 283t-101.5 381.5zM143 794q0 -161 81.5 -307t227.5 -228t306 -82q161 0 306.5 82t227.5 228t82 307q0 162 -83.5 310 t-229 227.5t-303.5 79.5t-303 -79.5t-228.5 -227.5t-83.5 -310zM411 384v813h165q233 0 261 -2q81 -7 126.5 -32.5t76 -78t30.5 -115.5q0 -89 -57.5 -151.5t-161.5 -77.5q37 -14 57 -30t55 -63q9 -12 60 -99l96 -164h-204l-68 132q-69 133 -114 167.5t-114 34.5h-43v-334 h-165zM576 846h67q131 0 160 7q44 9 68 38t24 67q0 40 -27 69t-74 36q-33 5 -151 5h-67v-222z" />
<glyph unicode="&#xaf;" horiz-adv-x="1024" d="M103 1583v102h1048v-102h-1048z" />
<glyph unicode="&#xb0;" horiz-adv-x="811" d="M86 1241q0 133 93.5 226t225.5 93t225.5 -93.5t93.5 -225.5t-93.5 -225.5t-225.5 -93.5t-225.5 93t-93.5 226zM252 1241q0 -63 45 -108t108 -45t108 45t45 108t-45 108t-108 45t-108 -45t-45 -108z" />
<glyph unicode="&#xb1;" horiz-adv-x="1366" d="M125 -60v215h1115v-215h-1115zM125 749v214h449v451h215v-451h451v-214h-451v-449h-215v449h-449z" />
<glyph unicode="&#xb2;" horiz-adv-x="641" d="M81 768v39q0 110 47.5 193.5t138.5 156.5t113 106.5t22 63.5t-21 50.5t-57 20.5q-63 0 -127 -80l-116 49q89 176 259 176q99 0 162 -60t63 -145q0 -63 -35 -119.5t-128 -129.5q-68 -54 -98 -89t-58 -89h319v-143h-484z" />
<glyph unicode="&#xb3;" horiz-adv-x="641" d="M73 1416q119 128 250 128q105 0 165.5 -55.5t60.5 -136.5q0 -61 -36.5 -108t-132.5 -84q103 -29 146.5 -81t43.5 -122q0 -85 -70.5 -148.5t-180.5 -63.5q-146 0 -246 154l111 50q54 -78 124 -78q45 0 71.5 26t26.5 68q0 53 -36 84q-48 41 -120 41h-25v124 q92 0 134.5 33.5t42.5 79.5q0 36 -29 62.5t-72 26.5q-65 0 -131 -73z" />
<glyph unicode="&#xb4;" horiz-adv-x="682" d="M129 1168l273 315h326l-392 -315h-207z" />
<glyph unicode="&#xb5;" horiz-adv-x="1260" d="M151 -407v1469h279v-481q0 -208 42 -283q53 -97 157 -97q59 0 111.5 40t72.5 108.5t20 228.5v484h284v-1062h-262v128q-30 -56 -57 -84t-72.5 -49t-83.5 -21q-71 0 -126 39q-39 29 -86 115v-535h-279z" />
<glyph unicode="&#xb6;" horiz-adv-x="1130" d="M-2 1111q0 108 40 196t108 138.5t164 72.5q57 12 222 12h597v-260h-113v-1609h-237v1609h-144v-1609h-243v1047q-189 14 -291.5 122t-102.5 281z" />
<glyph unicode="&#xb8;" horiz-adv-x="682" d="M26 -286h14q117 -10 172 -10q91 0 135 33q33 24 33 61q0 34 -31 59t-94 25t-133 -20l26 99q83 21 170 21q124 0 188.5 -55t64.5 -132q0 -85 -84.5 -149.5t-269.5 -64.5q-118 0 -191 16v117z" />
<glyph unicode="&#xb9;" horiz-adv-x="641" d="M97 1317v140q92 35 161 65h150v-613h152v-141h-455v141h153v442q-92 -24 -161 -34z" />
<glyph unicode="&#xba;" horiz-adv-x="768" d="M68 1204q0 181 90 269t191 88l35 -1q141 0 228 -93t87 -261q0 -172 -89 -268.5t-222 -96.5q-138 0 -229 96.5t-91 266.5zM243 1202q0 -125 41.5 -179t99.5 -54q60 0 100.5 53.5t40.5 188.5q0 128 -41 181.5t-100 53.5t-94 -46q-47 -64 -47 -198z" />
<glyph unicode="&#xbb;" horiz-adv-x="1067" d="M51 0l235 544l-235 546h290l233 -546l-233 -544h-290zM495 0l236 544l-236 546h287l235 -546l-235 -544h-287z" />
<glyph unicode="&#xbc;" horiz-adv-x="1921" d="M65 581v160h169v626q-68 -25 -158 -30v158q118 11 190 58h164v-812h162v-160h-527zM402 -186l1013 1754l121 -75l-1010 -1745zM1042 -44v151l431 678h233v-669h113v-160h-113v-208h-195v208h-469zM1219 116h292v465z" />
<glyph unicode="&#xbd;" horiz-adv-x="1921" d="M83 584v158h172v627q-64 -24 -154 -29v162q111 12 187 58h164v-818h160v-158h-529zM353 -185l1009 1745l125 -67l-1009 -1744zM1157 -100q0 23 59 107q102 145 237 260q102 87 130.5 133t28.5 87q0 55 -36 92.5t-88 37.5q-46 0 -83 -30.5t-62 -104.5l-166 35 q36 115 97 177q92 91 229 91t226.5 -85t89.5 -201q0 -75 -40.5 -143t-178.5 -190.5t-219 -219.5h446v-197h-670v151z" />
<glyph unicode="&#xbe;" horiz-adv-x="1921" d="M59 744l130 98q105 -100 189 -100q53 0 89 35t36 82q0 54 -53.5 94t-183.5 40h-38v157h58q116 0 165 36.5t49 85.5q0 37 -36.5 70t-86.5 33q-86 0 -163 -86l-126 109q146 155 334 155q125 0 200.5 -73t75.5 -183q0 -78 -41.5 -130.5t-139.5 -96.5q107 -37 151 -94 t44 -135q0 -109 -88.5 -186.5t-236.5 -77.5q-97 0 -185.5 43.5t-142.5 123.5zM404 -191l1008 1751l124 -72l-1008 -1742zM1055 -45v147l423 679h240v-668h111v-158h-111v-209h-194v209h-469zM1230 113h294v470z" />
<glyph unicode="&#xbf;" horiz-adv-x="961" d="M96 124q0 94 58.5 200t170.5 196q66 53 92 113.5t26 105.5v43h235v-43q0 -137 -41 -240q-22 -56 -111 -149.5t-113 -139.5t-24 -87q0 -46 32.5 -79t78.5 -33q35 0 74.5 22t111.5 94l184 -127q-104 -133 -198.5 -190t-199.5 -57q-176 0 -276 121t-100 250zM410 987v326 h300v-326h-300z" />
<glyph unicode="&#xc0;" horiz-adv-x="1386" d="M37 0l496 1530h319l498 -1530h-296l-116 359h-489l-116 -359h-296zM299 1925h329l268 -314h-203zM518 582h348l-173 534z" />
<glyph unicode="&#xc1;" horiz-adv-x="1386" d="M37 0l496 1530h319l498 -1530h-296l-116 359h-489l-116 -359h-296zM481 1611l273 315h326l-392 -315h-207zM518 582h348l-173 534z" />
<glyph unicode="&#xc2;" horiz-adv-x="1386" d="M37 0l496 1530h319l498 -1530h-296l-116 359h-489l-116 -359h-296zM325 1608l291 317h156l279 -317h-177l-183 140l-181 -140h-185zM518 582h348l-173 534z" />
<glyph unicode="&#xc3;" horiz-adv-x="1386" d="M37 0l496 1530h319l498 -1530h-296l-116 359h-489l-116 -359h-296zM331 1623q13 152 69.5 213t148.5 61q83 0 194 -56q63 -31 92 -31q25 0 42.5 18t24.5 66h149q-11 -149 -67 -211t-144 -62q-85 0 -201 58q-61 31 -87 31t-45 -22.5t-20 -64.5h-156zM518 582h348l-173 534 z" />
<glyph unicode="&#xc4;" horiz-adv-x="1386" d="M37 0l496 1530h319l498 -1530h-296l-116 359h-489l-116 -359h-296zM340 1655v216h219v-216h-219zM518 582h348l-173 534zM823 1655v216h217v-216h-217z" />
<glyph unicode="&#xc5;" horiz-adv-x="1386" d="M37 0l496 1530h319l498 -1530h-296l-116 359h-489l-116 -359h-296zM503 1812q0 78 56.5 134.5t132.5 56.5q80 0 135.5 -56t55.5 -135t-55.5 -134.5t-134.5 -55.5t-134.5 55.5t-55.5 134.5zM518 582h348l-173 534zM578 1811q0 -48 34 -82t82 -34t81.5 34t33.5 82t-33.5 82 t-79.5 34q-50 0 -84 -34t-34 -82z" />
<glyph unicode="&#xc6;" horiz-adv-x="1921" d="M35 0l585 1530h1210v-263h-636v-334h378v-230h-378v-436h636v-267h-943v357h-415l-139 -357h-298zM557 581h330v686h-68z" />
<glyph unicode="&#xc7;" horiz-adv-x="1409" d="M97 738q0 249 84.5 440t245.5 286.5t339 95.5q131 0 256.5 -58t207.5 -164q57 -74 91 -196l-280 -80q-30 124 -106.5 187.5t-183.5 63.5q-160 0 -249 -155t-89 -405q0 -158 41 -277t113 -175.5t156 -56.5q126 0 225 91q70 63 110 182l277 -79q-32 -129 -81 -205 q-79 -123 -204.5 -193t-290.5 -70q-176 0 -336 88.5t-243 264.5t-83 415zM390 -286h14q117 -10 172 -10q91 0 135 33q33 24 33 61q0 34 -31 59t-94 25t-133 -20l26 99q83 21 170 21q124 0 188.5 -55t64.5 -132q0 -85 -84.5 -149.5t-269.5 -64.5q-118 0 -191 16v117z" />
<glyph unicode="&#xc8;" horiz-adv-x="1300" d="M182 0v1530h1026v-266h-725v-337h442v-227h-442v-436h725v-264h-1026zM256 1925h329l268 -314h-203z" />
<glyph unicode="&#xc9;" horiz-adv-x="1300" d="M182 0v1530h1026v-266h-725v-337h442v-227h-442v-436h725v-264h-1026zM438 1611l273 315h326l-392 -315h-207z" />
<glyph unicode="&#xca;" horiz-adv-x="1300" d="M182 0v1530h1026v-266h-725v-337h442v-227h-442v-436h725v-264h-1026zM282 1608l291 317h156l279 -317h-177l-183 140l-181 -140h-185z" />
<glyph unicode="&#xcb;" horiz-adv-x="1300" d="M182 0v1530h1026v-266h-725v-337h442v-227h-442v-436h725v-264h-1026zM297 1655v216h219v-216h-219zM780 1655v216h217v-216h-217z" />
<glyph unicode="&#xcc;" horiz-adv-x="705" d="M-41 1925h329l268 -314h-203zM202 0v1530h300v-1530h-300z" />
<glyph unicode="&#xcd;" horiz-adv-x="705" d="M141 1611l273 315h326l-392 -315h-207zM202 0v1530h300v-1530h-300z" />
<glyph unicode="&#xce;" horiz-adv-x="705" d="M-15 1608l291 317h156l279 -317h-177l-183 140l-181 -140h-185zM202 0v1530h300v-1530h-300z" />
<glyph unicode="&#xcf;" horiz-adv-x="705" d="M0 1655v216h219v-216h-219zM202 0v1530h300v-1530h-300zM483 1655v216h217v-216h-217z" />
<glyph unicode="&#xd0;" horiz-adv-x="1516" d="M95 646v186h89v698h555q189 0 350.5 -96t242 -273.5t80.5 -384.5q0 -175 -56 -336q-41 -120 -104 -196q-39 -47 -120 -107t-165 -91q-121 -46 -284 -46h-499v646h-89zM488 237h202q113 0 205.5 63t138.5 160q61 129 61 287q0 226 -127 360t-320 134h-160v-409h304v-186 h-304v-409z" />
<glyph unicode="&#xd1;" horiz-adv-x="1599" d="M178 0v1530h318l628 -1027v1027h298v-1530h-298l-645 1067v-1067h-301zM438 1623q13 152 69.5 213t148.5 61q83 0 194 -56q63 -31 92 -31q25 0 42.5 18t24.5 66h149q-11 -149 -67 -211t-144 -62q-85 0 -201 58q-61 31 -87 31t-45 -22.5t-20 -64.5h-156z" />
<glyph unicode="&#xd2;" horiz-adv-x="1536" d="M95 764q0 234 76 420q41 103 125.5 192t197 136.5t244.5 47.5q216 0 348 -72q173 -94 264 -270t91 -462q0 -388 -183 -587t-484 -199q-304 0 -491.5 202.5t-187.5 591.5zM374 1925h329l268 -314h-203zM411 764q0 -281 102.5 -404t262.5 -123q152 0 253 122.5t101 401.5 q0 312 -123 439q-95 98 -239 98q-155 0 -256 -124t-101 -410z" />
<glyph unicode="&#xd3;" horiz-adv-x="1536" d="M95 764q0 234 76 420q41 103 125.5 192t197 136.5t244.5 47.5q216 0 348 -72q173 -94 264 -270t91 -462q0 -388 -183 -587t-484 -199q-304 0 -491.5 202.5t-187.5 591.5zM411 764q0 -281 102.5 -404t262.5 -123q152 0 253 122.5t101 401.5q0 312 -123 439q-95 98 -239 98 q-155 0 -256 -124t-101 -410zM556 1611l273 315h326l-392 -315h-207z" />
<glyph unicode="&#xd4;" horiz-adv-x="1536" d="M95 764q0 234 76 420q41 103 125.5 192t197 136.5t244.5 47.5q216 0 348 -72q173 -94 264 -270t91 -462q0 -388 -183 -587t-484 -199q-304 0 -491.5 202.5t-187.5 591.5zM400 1608l291 317h156l279 -317h-177l-183 140l-181 -140h-185zM411 764q0 -281 102.5 -404 t262.5 -123q152 0 253 122.5t101 401.5q0 312 -123 439q-95 98 -239 98q-155 0 -256 -124t-101 -410z" />
<glyph unicode="&#xd5;" horiz-adv-x="1536" d="M95 764q0 234 76 420q41 103 125.5 192t197 136.5t244.5 47.5q216 0 348 -72q173 -94 264 -270t91 -462q0 -388 -183 -587t-484 -199q-304 0 -491.5 202.5t-187.5 591.5zM406 1623q13 152 69.5 213t148.5 61q83 0 194 -56q63 -31 92 -31q25 0 42.5 18t24.5 66h149 q-11 -149 -67 -211t-144 -62q-85 0 -201 58q-61 31 -87 31t-45 -22.5t-20 -64.5h-156zM411 764q0 -281 102.5 -404t262.5 -123q152 0 253 122.5t101 401.5q0 312 -123 439q-95 98 -239 98q-155 0 -256 -124t-101 -410z" />
<glyph unicode="&#xd6;" horiz-adv-x="1536" d="M95 764q0 234 76 420q41 103 125.5 192t197 136.5t244.5 47.5q216 0 348 -72q173 -94 264 -270t91 -462q0 -388 -183 -587t-484 -199q-304 0 -491.5 202.5t-187.5 591.5zM411 764q0 -281 102.5 -404t262.5 -123q152 0 253 122.5t101 401.5q0 312 -123 439q-95 98 -239 98 q-155 0 -256 -124t-101 -410zM415 1655v216h219v-216h-219zM898 1655v216h217v-216h-217z" />
<glyph unicode="&#xd7;" horiz-adv-x="1366" d="M158 1049l151 151l375 -375l374 375l152 -152l-373 -374l370 -371l-151 -151l-371 370l-372 -370l-152 151l372 371z" />
<glyph unicode="&#xd8;" horiz-adv-x="1536" d="M48 -29l199 240q-66 85 -98 178q-55 159 -55 363q0 291 87 464t252 268q132 76 331 76q153 0 256 -40.5t203 -132.5l143 166h125l-200 -238q77 -117 109 -223q43 -143 43 -331q0 -390 -184.5 -590.5t-486.5 -200.5q-162 0 -293 56q-83 35 -161 107l-140 -162h-130z M413 771q0 -211 46 -304l576 695q-103 133 -270 133q-151 0 -251.5 -122.5t-100.5 -401.5zM508 363q111 -131 270 -131q149 0 249.5 123.5t100.5 412.5q0 174 -44 295z" />
<glyph unicode="&#xd9;" horiz-adv-x="1556" d="M171 544v986h302v-934q0 -175 81 -262t220 -87q89 0 158 35t110.5 114t41.5 200v934h303v-978q0 -280 -153 -431t-448 -151q-170 0 -317 54q-78 29 -130 76q-72 66 -120 168.5t-48 275.5zM384 1925h329l268 -314h-203z" />
<glyph unicode="&#xda;" horiz-adv-x="1556" d="M171 544v986h302v-934q0 -175 81 -262t220 -87q89 0 158 35t110.5 114t41.5 200v934h303v-978q0 -280 -153 -431t-448 -151q-170 0 -317 54q-78 29 -130 76q-72 66 -120 168.5t-48 275.5zM566 1611l273 315h326l-392 -315h-207z" />
<glyph unicode="&#xdb;" horiz-adv-x="1556" d="M171 544v986h302v-934q0 -175 81 -262t220 -87q89 0 158 35t110.5 114t41.5 200v934h303v-978q0 -280 -153 -431t-448 -151q-170 0 -317 54q-78 29 -130 76q-72 66 -120 168.5t-48 275.5zM410 1608l291 317h156l279 -317h-177l-183 140l-181 -140h-185z" />
<glyph unicode="&#xdc;" horiz-adv-x="1556" d="M171 544v986h302v-934q0 -175 81 -262t220 -87q89 0 158 35t110.5 114t41.5 200v934h303v-978q0 -280 -153 -431t-448 -151q-170 0 -317 54q-78 29 -130 76q-72 66 -120 168.5t-48 275.5zM425 1655v216h219v-216h-219zM908 1655v216h217v-216h-217z" />
<glyph unicode="&#xdd;" horiz-adv-x="1280" d="M50 1530h314l273 -531l270 531h314l-433 -848v-682h-303v682zM428 1611l273 315h326l-392 -315h-207z" />
<glyph unicode="&#xde;" horiz-adv-x="1430" d="M178 0v1530h306v-296h168q267 0 394 -42.5t207 -146.5t80 -257q0 -114 -37.5 -200t-108.5 -144t-143 -88q-129 -53 -307 -53h-253v-303h-306zM484 551h225q157 0 248 74q63 51 63 148q0 90 -64 142t-232 52h-240v-416z" />
<glyph unicode="&#xdf;" horiz-adv-x="1217" d="M139 1018q0 282 120 408.5t355 126.5q216 0 333 -105t117 -252q0 -111 -61.5 -190t-178.5 -129q98 -47 147 -88q73 -63 116 -150.5t43 -209.5q0 -206 -115 -332.5t-273 -126.5q-62 0 -113 17.5t-113 58.5l113 172q52 -31 86 -31q43 0 72 43q42 64 42 216q0 185 -47 251 t-153 83v190q87 16 126.5 64.5t39.5 136.5q0 96 -45.5 142.5t-127.5 46.5q-94 0 -149 -65t-55 -234v-1061h-279v1018z" />
<glyph unicode="&#xe0;" horiz-adv-x="1153" d="M104 283q0 86 44 163t129 134.5t214 92.5q97 26 261 44q0 69 -12 100q-18 48 -63 75t-111 27q-159 0 -267 -145l-164 138q81 96 194 146.5t242 50.5q134 0 236 -48q74 -36 128.5 -119.5t54.5 -209.5v-508q0 -48 12 -116t26 -108h-241q-17 55 -26 112q-74 -65 -153.5 -98 t-164.5 -33q-148 0 -243.5 89.5t-95.5 212.5zM183 1482h329l268 -314h-203zM355 305q0 -60 39.5 -99t100.5 -39q52 0 116.5 30.5t140.5 90.5v273q-239 -45 -328 -123q-69 -59 -69 -133z" />
<glyph unicode="&#xe1;" horiz-adv-x="1153" d="M104 283q0 86 44 163t129 134.5t214 92.5q97 26 261 44q0 69 -12 100q-18 48 -63 75t-111 27q-159 0 -267 -145l-164 138q81 96 194 146.5t242 50.5q134 0 236 -48q74 -36 128.5 -119.5t54.5 -209.5v-508q0 -48 12 -116t26 -108h-241q-17 55 -26 112q-74 -65 -153.5 -98 t-164.5 -33q-148 0 -243.5 89.5t-95.5 212.5zM355 305q0 -60 39.5 -99t100.5 -39q52 0 116.5 30.5t140.5 90.5v273q-239 -45 -328 -123q-69 -59 -69 -133zM365 1168l273 315h326l-392 -315h-207z" />
<glyph unicode="&#xe2;" horiz-adv-x="1153" d="M104 283q0 86 44 163t129 134.5t214 92.5q97 26 261 44q0 69 -12 100q-18 48 -63 75t-111 27q-159 0 -267 -145l-164 138q81 96 194 146.5t242 50.5q134 0 236 -48q74 -36 128.5 -119.5t54.5 -209.5v-508q0 -48 12 -116t26 -108h-241q-17 55 -26 112q-74 -65 -153.5 -98 t-164.5 -33q-148 0 -243.5 89.5t-95.5 212.5zM209 1165l291 317h156l279 -317h-177l-183 140l-181 -140h-185zM355 305q0 -60 39.5 -99t100.5 -39q52 0 116.5 30.5t140.5 90.5v273q-239 -45 -328 -123q-69 -59 -69 -133z" />
<glyph unicode="&#xe3;" horiz-adv-x="1153" d="M104 283q0 86 44 163t129 134.5t214 92.5q97 26 261 44q0 69 -12 100q-18 48 -63 75t-111 27q-159 0 -267 -145l-164 138q81 96 194 146.5t242 50.5q134 0 236 -48q74 -36 128.5 -119.5t54.5 -209.5v-508q0 -48 12 -116t26 -108h-241q-17 55 -26 112q-74 -65 -153.5 -98 t-164.5 -33q-148 0 -243.5 89.5t-95.5 212.5zM215 1180q13 152 69.5 213t148.5 61q83 0 194 -56q63 -31 92 -31q25 0 42.5 18t24.5 66h149q-11 -149 -67 -211t-144 -62q-85 0 -201 58q-61 31 -87 31t-45 -22.5t-20 -64.5h-156zM355 305q0 -60 39.5 -99t100.5 -39 q52 0 116.5 30.5t140.5 90.5v273q-239 -45 -328 -123q-69 -59 -69 -133z" />
<glyph unicode="&#xe4;" horiz-adv-x="1153" d="M104 283q0 86 44 163t129 134.5t214 92.5q97 26 261 44q0 69 -12 100q-18 48 -63 75t-111 27q-159 0 -267 -145l-164 138q81 96 194 146.5t242 50.5q134 0 236 -48q74 -36 128.5 -119.5t54.5 -209.5v-508q0 -48 12 -116t26 -108h-241q-17 55 -26 112q-74 -65 -153.5 -98 t-164.5 -33q-148 0 -243.5 89.5t-95.5 212.5zM224 1212v216h219v-216h-219zM355 305q0 -60 39.5 -99t100.5 -39q52 0 116.5 30.5t140.5 90.5v273q-239 -45 -328 -123q-69 -59 -69 -133zM707 1212v216h217v-216h-217z" />
<glyph unicode="&#xe5;" horiz-adv-x="1153" d="M104 283q0 86 44 163t129 134.5t214 92.5q97 26 261 44q0 69 -12 100q-18 48 -63 75t-111 27q-159 0 -267 -145l-164 138q81 96 194 146.5t242 50.5q134 0 236 -48q74 -36 128.5 -119.5t54.5 -209.5v-508q0 -48 12 -116t26 -108h-241q-17 55 -26 112q-74 -65 -153.5 -98 t-164.5 -33q-148 0 -243.5 89.5t-95.5 212.5zM355 305q0 -60 39.5 -99t100.5 -39q52 0 116.5 30.5t140.5 90.5v273q-239 -45 -328 -123q-69 -59 -69 -133zM387 1369q0 78 56.5 134.5t132.5 56.5q80 0 135.5 -56t55.5 -135t-55.5 -134.5t-134.5 -55.5t-134.5 55.5 t-55.5 134.5zM462 1368q0 -48 34 -82t82 -34t81.5 34t33.5 82t-33.5 82t-79.5 34q-50 0 -84 -34t-34 -82z" />
<glyph unicode="&#xe6;" horiz-adv-x="1878" d="M103 286q0 111 78 207.5t227 148.5q115 40 368 63q0 74 -12 107q-17 52 -61 80.5t-122 28.5q-169 0 -280 -143l-161 137q81 90 172 133q129 61 282 61q116 0 196 -39t156 -126q74 85 157 125t198 40q141 0 238 -53t152.5 -132t77 -177.5t21.5 -251.5h-739q9 -151 76 -221 t175 -70q153 0 232 155l233 -102q-75 -124 -168 -188q-128 -87 -289 -87q-118 0 -210.5 43.5t-190.5 143.5q-149 -108 -251.5 -147.5t-205.5 -39.5q-157 0 -253 88.5t-96 215.5zM379 292q0 -62 38.5 -101t98.5 -39q56 0 121 30t139 89v275q-233 -41 -328 -122 q-69 -59 -69 -132zM1056 665h478q-11 128 -76 193.5t-158 65.5q-99 0 -167 -68t-77 -191z" />
<glyph unicode="&#xe7;" horiz-adv-x="1087" d="M97 541q0 254 147 411t360 157q103 0 178.5 -37t132.5 -103q40 -46 86 -139l-234 -62q-39 65 -79.5 93t-92.5 28q-80 0 -137.5 -73t-57.5 -234q0 -125 31 -225q21 -72 68 -109.5t105 -37.5q62 0 113.5 45t80.5 145l216 -107q-41 -100 -79 -150q-59 -77 -142.5 -119 t-198.5 -42q-246 0 -386 190q-111 152 -111 369zM229 -286h14q117 -10 172 -10q91 0 135 33q33 24 33 61q0 34 -31 59t-94 25t-133 -20l26 99q83 21 170 21q124 0 188.5 -55t64.5 -132q0 -85 -84.5 -149.5t-269.5 -64.5q-118 0 -191 16v117z" />
<glyph unicode="&#xe8;" d="M101 558q0 252 142.5 401.5t364.5 149.5q217 0 348 -136.5t131 -381.5q0 -32 -3 -94h-692q5 -148 69 -220t161 -72q74 0 126 38.5t90 113.5l225 -95q-38 -71 -70 -109q-50 -59 -111 -97t-126 -56t-136 -18q-138 0 -262.5 70.5t-190.5 205t-66 300.5zM193 1482h329 l268 -314h-203zM391 662h447q-6 125 -70 192t-157 67q-89 0 -150.5 -65.5t-69.5 -193.5z" />
<glyph unicode="&#xe9;" d="M101 558q0 252 142.5 401.5t364.5 149.5q217 0 348 -136.5t131 -381.5q0 -32 -3 -94h-692q5 -148 69 -220t161 -72q74 0 126 38.5t90 113.5l225 -95q-38 -71 -70 -109q-50 -59 -111 -97t-126 -56t-136 -18q-138 0 -262.5 70.5t-190.5 205t-66 300.5zM375 1168l273 315 h326l-392 -315h-207zM391 662h447q-6 125 -70 192t-157 67q-89 0 -150.5 -65.5t-69.5 -193.5z" />
<glyph unicode="&#xea;" d="M101 558q0 252 142.5 401.5t364.5 149.5q217 0 348 -136.5t131 -381.5q0 -32 -3 -94h-692q5 -148 69 -220t161 -72q74 0 126 38.5t90 113.5l225 -95q-38 -71 -70 -109q-50 -59 -111 -97t-126 -56t-136 -18q-138 0 -262.5 70.5t-190.5 205t-66 300.5zM219 1165l291 317 h156l279 -317h-177l-183 140l-181 -140h-185zM391 662h447q-6 125 -70 192t-157 67q-89 0 -150.5 -65.5t-69.5 -193.5z" />
<glyph unicode="&#xeb;" d="M101 558q0 252 142.5 401.5t364.5 149.5q217 0 348 -136.5t131 -381.5q0 -32 -3 -94h-692q5 -148 69 -220t161 -72q74 0 126 38.5t90 113.5l225 -95q-38 -71 -70 -109q-50 -59 -111 -97t-126 -56t-136 -18q-138 0 -262.5 70.5t-190.5 205t-66 300.5zM234 1212v216h219 v-216h-219zM391 662h447q-6 125 -70 192t-157 67q-89 0 -150.5 -65.5t-69.5 -193.5zM717 1212v216h217v-216h-217z" />
<glyph unicode="&#xec;" horiz-adv-x="662" d="M-63 1482h329l268 -314h-203zM194 0v1090h274v-1090h-274z" />
<glyph unicode="&#xed;" horiz-adv-x="662" d="M119 1168l273 315h326l-392 -315h-207zM194 0v1090h274v-1090h-274z" />
<glyph unicode="&#xee;" horiz-adv-x="662" d="M-37 1165l291 317h156l279 -317h-177l-183 140l-181 -140h-185zM194 0v1090h274v-1090h-274z" />
<glyph unicode="&#xef;" horiz-adv-x="662" d="M-22 1212v216h219v-216h-219zM194 0v1090h274v-1090h-274zM461 1212v216h217v-216h-217z" />
<glyph unicode="&#xf0;" d="M99 537q0 174 62.5 308t178.5 199t248 65q29 0 38 -2q12 -2 49 -2q-68 129 -157 230l-310 -139l-41 97l277 127q-76 71 -164 133h238l82 -63l147 63l45 -95l-108 -49q142 -156 200 -244q83 -127 137 -291t54 -320q0 -269 -138 -420.5t-342 -151.5q-214 0 -355 149.5 t-141 405.5zM366 542q0 -193 66 -277.5t158 -84.5q88 0 142 73q73 98 73 305q0 197 -65 282.5t-149 85.5q-96 0 -152 -73q-73 -98 -73 -311z" />
<glyph unicode="&#xf1;" horiz-adv-x="1217" d="M168 0v1090h276v-149q86 82 177 125t201 43q124 0 178 -60q72 -80 72 -219v-830h-274v760q0 67 -26 95.5t-74 28.5q-51 0 -108 -28.5t-146 -110.5v-745h-276zM247 1180q13 152 69.5 213t148.5 61q83 0 194 -56q63 -31 92 -31q25 0 42.5 18t24.5 66h149q-11 -149 -67 -211 t-144 -62q-85 0 -201 58q-61 31 -87 31t-45 -22.5t-20 -64.5h-156z" />
<glyph unicode="&#xf2;" d="M93 550q0 268 133 413.5t335 145.5q243 0 381.5 -145t138.5 -412q0 -269 -140 -420t-350 -151q-201 0 -349.5 143t-148.5 426zM193 1482h329l268 -314h-203zM369 544q0 -195 64 -278t154 -83q63 0 115 40.5t75 115.5q33 105 33 237q0 99 -27.5 184.5t-79.5 126t-114 40.5 q-94 0 -148 -73q-72 -97 -72 -310z" />
<glyph unicode="&#xf3;" d="M93 550q0 268 133 413.5t335 145.5q243 0 381.5 -145t138.5 -412q0 -269 -140 -420t-350 -151q-201 0 -349.5 143t-148.5 426zM369 544q0 -195 64 -278t154 -83q63 0 115 40.5t75 115.5q33 105 33 237q0 99 -27.5 184.5t-79.5 126t-114 40.5q-94 0 -148 -73 q-72 -97 -72 -310zM375 1168l273 315h326l-392 -315h-207z" />
<glyph unicode="&#xf4;" d="M93 550q0 268 133 413.5t335 145.5q243 0 381.5 -145t138.5 -412q0 -269 -140 -420t-350 -151q-201 0 -349.5 143t-148.5 426zM219 1165l291 317h156l279 -317h-177l-183 140l-181 -140h-185zM369 544q0 -195 64 -278t154 -83q63 0 115 40.5t75 115.5q33 105 33 237 q0 99 -27.5 184.5t-79.5 126t-114 40.5q-94 0 -148 -73q-72 -97 -72 -310z" />
<glyph unicode="&#xf5;" d="M93 550q0 268 133 413.5t335 145.5q243 0 381.5 -145t138.5 -412q0 -269 -140 -420t-350 -151q-201 0 -349.5 143t-148.5 426zM225 1180q13 152 69.5 213t148.5 61q83 0 194 -56q63 -31 92 -31q25 0 42.5 18t24.5 66h149q-11 -149 -67 -211t-144 -62q-85 0 -201 58 q-61 31 -87 31t-45 -22.5t-20 -64.5h-156zM369 544q0 -195 64 -278t154 -83q63 0 115 40.5t75 115.5q33 105 33 237q0 99 -27.5 184.5t-79.5 126t-114 40.5q-94 0 -148 -73q-72 -97 -72 -310z" />
<glyph unicode="&#xf6;" d="M93 550q0 268 133 413.5t335 145.5q243 0 381.5 -145t138.5 -412q0 -269 -140 -420t-350 -151q-201 0 -349.5 143t-148.5 426zM234 1212v216h219v-216h-219zM369 544q0 -195 64 -278t154 -83q63 0 115 40.5t75 115.5q33 105 33 237q0 99 -27.5 184.5t-79.5 126t-114 40.5 q-94 0 -148 -73q-72 -97 -72 -310zM717 1212v216h217v-216h-217z" />
<glyph unicode="&#xf7;" horiz-adv-x="1366" d="M126 574v204h1114v-204h-1114zM551 1096q0 53 37.5 90.5t90.5 37.5t91 -37.5t38 -90.5t-38 -90.5t-91 -37.5t-90.5 37.5t-37.5 90.5zM552 264q0 53 38 91t91 38q54 0 92 -38t38 -91q0 -54 -38 -91.5t-92 -37.5q-53 0 -91 37.5t-38 91.5z" />
<glyph unicode="&#xf8;" d="M18 -67l190 228q-116 146 -116 390q0 242 122.5 400t351.5 158q210 0 341 -111l136 164h110l-188 -225q116 -145 116 -386q0 -268 -140 -419t-350 -151q-188 0 -324 119l-139 -167h-110zM368 548q0 -98 19 -172l371 444q-61 107 -173 107q-90 0 -145 -73 q-72 -96 -72 -306zM421 284q61 -101 165 -101q92 0 158 86.5t66 303.5q0 81 -19 155z" />
<glyph unicode="&#xf9;" horiz-adv-x="1217" d="M143 287v803h279v-748q0 -57 32 -90.5t81 -33.5q51 0 104 29t129 110v733h277v-1090h-277v164q-94 -95 -191.5 -138.5t-170.5 -43.5q-67 0 -126.5 31.5t-98 101.5t-38.5 172zM215 1482h329l268 -314h-203z" />
<glyph unicode="&#xfa;" horiz-adv-x="1217" d="M143 287v803h279v-748q0 -57 32 -90.5t81 -33.5q51 0 104 29t129 110v733h277v-1090h-277v164q-94 -95 -191.5 -138.5t-170.5 -43.5q-67 0 -126.5 31.5t-98 101.5t-38.5 172zM397 1168l273 315h326l-392 -315h-207z" />
<glyph unicode="&#xfb;" horiz-adv-x="1217" d="M143 287v803h279v-748q0 -57 32 -90.5t81 -33.5q51 0 104 29t129 110v733h277v-1090h-277v164q-94 -95 -191.5 -138.5t-170.5 -43.5q-67 0 -126.5 31.5t-98 101.5t-38.5 172zM241 1165l291 317h156l279 -317h-177l-183 140l-181 -140h-185z" />
<glyph unicode="&#xfc;" horiz-adv-x="1217" d="M143 287v803h279v-748q0 -57 32 -90.5t81 -33.5q51 0 104 29t129 110v733h277v-1090h-277v164q-94 -95 -191.5 -138.5t-170.5 -43.5q-67 0 -126.5 31.5t-98 101.5t-38.5 172zM256 1212v216h219v-216h-219zM739 1212v216h217v-216h-217z" />
<glyph unicode="&#xfd;" horiz-adv-x="1067" d="M70 1090h260l213 -699l212 699h257l-308 -1024q-56 -185 -108.5 -277t-127.5 -151q-41 -33 -115 -55t-175 -22h-99v191h54q113 0 184.5 55t95.5 159zM322 1168l273 315h326l-392 -315h-207z" />
<glyph unicode="&#xfe;" horiz-adv-x="1260" d="M176 -439v1992h277v-579q74 68 146 101.5t141 33.5q141 0 259 -115q160 -156 160 -443q0 -285 -159 -447q-120 -122 -255 -122q-62 0 -131.5 33t-160.5 112v-566h-277zM453 315q73 -49 120 -66.5t93 -17.5q91 0 154.5 77.5t63.5 248.5q0 156 -64.5 234t-154.5 78 q-48 0 -96 -18t-116 -65v-471z" />
<glyph unicode="&#xff;" horiz-adv-x="1067" d="M70 1090h260l213 -699l212 699h257l-308 -1024q-56 -185 -108.5 -277t-127.5 -151q-41 -33 -115 -55t-175 -22h-99v191h54q113 0 184.5 55t95.5 159zM181 1212v216h219v-216h-219zM664 1212v216h217v-216h-217z" />
<glyph unicode="&#x131;" horiz-adv-x="662" d="M194 0v1090h274v-1090h-274z" />
<glyph unicode="&#x152;" horiz-adv-x="2005" d="M94 747q0 410 171.5 608t418.5 198q101 0 178 -32t146 -95v104h906v-263h-601v-338h360v-229h-360v-433h601v-267h-906v94q-88 -60 -165 -86t-166 -26q-177 0 -315.5 97.5t-203 279t-64.5 388.5zM410 760q0 -293 81.5 -401.5t210.5 -108.5q133 0 209 100q99 133 99 428 q0 271 -90.5 387t-216.5 116q-129 0 -200 -96q-93 -126 -93 -425z" />
<glyph unicode="&#x153;" horiz-adv-x="1898" d="M102 541q0 227 106 376q135 192 390 192q125 0 208.5 -44.5t156.5 -142.5q101 108 181 147.5t189 39.5q254 0 386 -188q91 -129 91 -360q0 -22 -1 -68h-699q3 -94 25 -148q29 -71 83.5 -106t119.5 -35q145 0 224 152l225 -95q-45 -83 -88 -128q-65 -68 -156.5 -109.5 t-206.5 -41.5q-117 0 -201 42.5t-172 147.5q-92 -104 -177 -147t-193 -43q-208 0 -349.5 150.5t-141.5 408.5zM378 561q0 -211 70 -306q53 -71 144 -71q96 0 153 75q74 99 74 311q0 190 -65 273.5t-158 83.5q-92 0 -146 -71q-72 -95 -72 -295zM1112 662h450 q-7 125 -72.5 192t-160.5 67q-89 0 -149 -63.5t-68 -195.5z" />
<glyph unicode="&#x178;" horiz-adv-x="1280" d="M50 1530h314l273 -531l270 531h314l-433 -848v-682h-303v682zM287 1655v216h219v-216h-219zM770 1655v216h217v-216h-217z" />
<glyph unicode="&#x2c6;" horiz-adv-x="682" d="M-27 1165l291 317h156l279 -317h-177l-183 140l-181 -140h-185z" />
<glyph unicode="&#x2da;" horiz-adv-x="682" d="M151 1369q0 78 56.5 134.5t132.5 56.5q80 0 135.5 -56t55.5 -135t-55.5 -134.5t-134.5 -55.5t-134.5 55.5t-55.5 134.5zM226 1368q0 -48 34 -82t82 -34t81.5 34t33.5 82t-33.5 82t-79.5 34q-50 0 -84 -34t-34 -82z" />
<glyph unicode="&#x2dc;" horiz-adv-x="682" d="M-21 1180q13 152 69.5 213t148.5 61q83 0 194 -56q63 -31 92 -31q25 0 42.5 18t24.5 66h149q-11 -149 -67 -211t-144 -62q-85 0 -201 58q-61 31 -87 31t-45 -22.5t-20 -64.5h-156z" />
<glyph unicode="&#x2000;" horiz-adv-x="1001" />
<glyph unicode="&#x2001;" horiz-adv-x="2003" />
<glyph unicode="&#x2002;" horiz-adv-x="1001" />
<glyph unicode="&#x2003;" horiz-adv-x="2003" />
<glyph unicode="&#x2004;" horiz-adv-x="667" />
<glyph unicode="&#x2005;" horiz-adv-x="500" />
<glyph unicode="&#x2006;" horiz-adv-x="333" />
<glyph unicode="&#x2007;" horiz-adv-x="333" />
<glyph unicode="&#x2008;" horiz-adv-x="250" />
<glyph unicode="&#x2009;" horiz-adv-x="400" />
<glyph unicode="&#x200a;" horiz-adv-x="111" />
<glyph unicode="&#x2010;" horiz-adv-x="748" d="M109 422v255h529v-255h-529z" />
<glyph unicode="&#x2011;" horiz-adv-x="748" d="M109 422v255h529v-255h-529z" />
<glyph unicode="&#x2012;" horiz-adv-x="748" d="M109 422v255h529v-255h-529z" />
<glyph unicode="&#x2013;" horiz-adv-x="1024" d="M-16 394v250h1054v-250h-1054z" />
<glyph unicode="&#x2014;" horiz-adv-x="2048" d="M-16 394v250h2079v-250h-2079z" />
<glyph unicode="&#x2018;" horiz-adv-x="641" d="M166 876v326l199 328h102l-169 -328h169v-326h-301z" />
<glyph unicode="&#x2019;" horiz-adv-x="641" d="M165 876l167 326h-167v328h298v-328l-191 -326h-107z" />
<glyph unicode="&#x201a;" horiz-adv-x="641" d="M166 0v333h300v-333l-183 -329h-106l162 329h-173z" />
<glyph unicode="&#x201c;" d="M166 876v326l199 328h102l-169 -328h169v-326h-301zM796 876v326l199 328h102l-169 -328h169v-326h-301z" />
<glyph unicode="&#x201d;" d="M165 876l167 326h-167v328h298v-328l-191 -326h-107zM797 876l167 326h-167v328h298v-328l-191 -326h-107z" />
<glyph unicode="&#x201e;" d="M166 0v333h300v-333l-183 -329h-106l162 329h-173zM801 0v333h300v-333l-183 -329h-106l162 329h-173z" />
<glyph unicode="&#x2022;" horiz-adv-x="725" d="M66 724q0 122 86.5 208.5t209.5 86.5q122 0 208.5 -86t86.5 -209t-86.5 -209.5t-208.5 -86.5q-123 0 -209.5 87t-86.5 209z" />
<glyph unicode="&#x2026;" horiz-adv-x="1921" d="M265 0v331h300v-331h-300zM823 0v331h300v-331h-300zM1370 0v331h300v-331h-300z" />
<glyph unicode="&#x202f;" horiz-adv-x="400" />
<glyph unicode="&#x2039;" horiz-adv-x="618" d="M48 542l237 548h288l-237 -548l237 -542h-288z" />
<glyph unicode="&#x203a;" horiz-adv-x="618" d="M48 0l235 544l-235 546h287l235 -546l-235 -544h-287z" />
<glyph unicode="&#x205f;" horiz-adv-x="500" />
<glyph unicode="&#x20ac;" horiz-adv-x="1280" d="M40 539l30 148h73q-1 33 -1 67q0 53 1 80h-103l30 148h85q72 578 538 578q417 0 533 -397l-279 -70q-61 219 -237 219q-216 0 -259 -330h460l-30 -148h-441q-1 -36 -1 -147h411l-30 -148h-372q42 -323 261 -323q203 0 253 281l278 -73q-103 -454 -522 -454 q-496 0 -564 569h-114z" />
<glyph unicode="&#x2122;" horiz-adv-x="2048" d="M216 1388v142h665v-142h-246v-676h-166v676h-253zM980 712v818h259l149 -564l150 564h259v-818h-158v652l-177 -652h-150l-176 652v-652h-156z" />
<glyph unicode="&#xe000;" horiz-adv-x="1090" d="M0 1090h1090v-1090h-1090v1090z" />
<glyph unicode="&#xfb01;" horiz-adv-x="1367" d="M56 892v198h125q8 170 33.5 249.5t77.5 128.5q39 38 110.5 61.5t146.5 23.5h105v-194h-46q-81 0 -115.5 -30t-34.5 -82v-157h165v-198h-165v-892h-277v892h-125zM899 0v1090h274v-1090h-274zM899 1278v275h274v-275h-274z" />
<glyph unicode="&#xfb02;" horiz-adv-x="1387" d="M56 892v198h125q8 170 33.5 249.5t77.5 128.5q39 38 110.5 61.5t146.5 23.5h105v-194h-46q-81 0 -115.5 -30t-34.5 -82v-157h165v-198h-165v-892h-277v892h-125zM909 0v1553h276v-1553h-276z" />
<glyph unicode="&#xfb03;" horiz-adv-x="2072" d="M56 892v198h125q8 170 33.5 249.5t77.5 128.5q39 38 110.5 61.5t146.5 23.5h105v-194h-46q-81 0 -115.5 -30t-34.5 -82v-157h165v-198h-165v-892h-277v892h-125zM761 892v198h125q8 170 33.5 249.5t77.5 128.5q39 38 110.5 61.5t146.5 23.5h105v-194h-46 q-81 0 -115.5 -30t-34.5 -82v-157h165v-198h-165v-892h-277v892h-125zM1604 0v1090h274v-1090h-274zM1604 1278v275h274v-275h-274z" />
<glyph unicode="&#xfb04;" horiz-adv-x="2092" d="M56 892v198h125q8 170 33.5 249.5t77.5 128.5q39 38 110.5 61.5t146.5 23.5h105v-194h-46q-81 0 -115.5 -30t-34.5 -82v-157h165v-198h-165v-892h-277v892h-125zM761 892v198h125q8 170 33.5 249.5t77.5 128.5q39 38 110.5 61.5t146.5 23.5h105v-194h-46 q-81 0 -115.5 -30t-34.5 -82v-157h165v-198h-165v-892h-277v892h-125zM1614 0v1553h276v-1553h-276z" />
</font>
</defs>
</svg>
